<svg xmlns="http://www.w3.org/2000/svg" viewBox="0 0 1046.2 179.28"><path fill="#58595b" d="M533.27 98.27c1.95 1.86 2.93 4.19 2.93 6.99s-.98 5.14-2.93 7.01c-1.95 1.88-4.45 2.81-7.49 2.81h-7.31v-19.6h7.31c3.04 0 5.54.93 7.49 2.79m-.69 7.05c0-1.96-.62-3.57-1.88-4.82-1.25-1.25-2.89-1.88-4.93-1.88h-3.86v13.33h3.86c2.03 0 3.68-.62 4.93-1.86s1.88-2.83 1.88-4.77m11.64-7.28h-3.64v-3.22h3.64zm-.11 17.05h-3.39v-14.78h3.39zm11-3.92 4-10.86h3.56l-6.05 14.9h-3.05l-6.08-14.9h3.64zm14.46-13.13h-3.64v-3.22h3.64zm-.11 17.05h-3.39v-14.78h3.39zm15.47-4.37c0 1.49-.51 2.64-1.54 3.44s-2.34 1.2-3.95 1.2c-2.32 0-4.41-.74-6.27-2.21l1.51-2.3c1.61 1.21 3.22 1.82 4.84 1.82.73 0 1.29-.14 1.69-.43s.6-.68.6-1.16v-.06c0-.62-.54-1.13-1.62-1.54-.22-.07-.78-.25-1.68-.53-.67-.19-1.23-.37-1.68-.56s-.92-.44-1.43-.77c-.5-.33-.88-.74-1.13-1.25s-.38-1.09-.38-1.76v-.06c0-1.36.5-2.45 1.5-3.28 1-.82 2.25-1.23 3.77-1.23q2.88 0 5.43 1.68l-1.34 2.41c-1.53-.93-2.92-1.4-4.17-1.4-.65 0-1.16.14-1.53.41-.36.27-.55.63-.55 1.08v.06c0 .45.25.81.74 1.08s1.26.57 2.31.91c.13.04.22.07.28.08q.975.315 1.65.6c.45.2.92.46 1.41.8s.87.75 1.13 1.23q.39.735.39 1.68v.06Zm7.55-12.68h-3.64v-3.22h3.64zm-.11 17.05h-3.39v-14.78h3.39zm17.52-12.85q2.25 2.235 2.25 5.46c0 3.225-.76 3.97-2.27 5.47s-3.4 2.25-5.66 2.25-4.11-.75-5.6-2.24-2.24-3.3-2.24-5.43.76-3.98 2.27-5.49 3.39-2.27 5.63-2.27 4.11.75 5.61 2.24Zm-2.36 8.89c.82-.91 1.23-2.03 1.23-3.37s-.43-2.48-1.29-3.4-1.94-1.39-3.25-1.39-2.4.45-3.22 1.36-1.23 2.03-1.23 3.37.42 2.48 1.27 3.4 1.93 1.39 3.23 1.39 2.43-.45 3.25-1.36Zm11.99-4.39v8.34h-3.39V100.3h3.39v2.3c1.18-1.74 2.72-2.6 4.62-2.6 1.64 0 2.93.51 3.86 1.54s1.4 2.41 1.4 4.14v9.41h-3.39v-8.4c0-1.16-.28-2.05-.83-2.67s-1.33-.94-2.34-.94-1.79.33-2.41.98-.92 1.55-.92 2.69Zm36.47-4.5q2.25 2.235 2.25 5.46c0 3.225-.76 3.97-2.27 5.47s-3.4 2.25-5.66 2.25-4.11-.75-5.6-2.24-2.24-3.3-2.24-5.43.76-3.98 2.27-5.49 3.39-2.27 5.63-2.27 4.11.75 5.61 2.24Zm-2.37 8.89c.82-.91 1.23-2.03 1.23-3.37s-.43-2.48-1.29-3.4-1.94-1.39-3.25-1.39-2.4.45-3.22 1.36-1.23 2.03-1.23 3.37.42 2.48 1.27 3.4 1.93 1.39 3.23 1.39 2.43-.45 3.25-1.36Zm12.39-10.71h3.92v2.8h-3.86v11.87h-3.39v-11.87h-1.88v-2.83h1.88v-1.06c0-3.23 1.51-4.84 4.54-4.84.95 0 1.87.13 2.74.39v2.86c-.73-.24-1.39-.36-1.99-.36-1.31 0-1.96.75-1.96 2.24v.81Zm20.33 2.8v7.25c0 1.23.61 1.85 1.82 1.85a4.7 4.7 0 0 0 2.1-.5v2.77c-.9.5-1.91.76-3.05.76-2.84 0-4.26-1.45-4.26-4.34v-7.78h-1.88v-2.91h1.88v-4.06h3.39v4.06h3.98v2.91h-3.98Zm11.25 3.52v8.34h-3.39V94.64h3.39v7.95c1.18-1.74 2.72-2.6 4.62-2.6 1.64 0 2.93.51 3.86 1.54s1.4 2.41 1.4 4.14v9.41h-3.39v-8.4c0-1.16-.28-2.05-.83-2.67s-1.33-.94-2.34-.94-1.79.33-2.41.98-.92 1.55-.92 2.69Zm17.12 2.16c.19 1.18.66 2.1 1.43 2.76s1.71.99 2.83.99c1.46 0 2.79-.59 4-1.76l1.99 1.76c-1.53 1.85-3.55 2.77-6.05 2.77-2.17 0-3.97-.72-5.42-2.16s-2.17-3.29-2.17-5.54.68-3.99 2.04-5.49c1.36-1.49 3.09-2.24 5.18-2.24 2.26 0 4 .76 5.24 2.28 1.23 1.52 1.85 3.42 1.85 5.7 0 .17-.02.48-.06.92h-10.86Zm-.03-2.24h7.59c-.11-1.14-.49-2.07-1.15-2.8-.65-.73-1.52-1.09-2.6-1.09q-1.545 0-2.58 1.08c-1.035 1.08-1.11 1.66-1.26 2.81m34.7-11.31 8.62 19.74h-3.64l-1.99-4.73h-9.27l-2.02 4.73h-3.53l8.62-19.74h3.19Zm1.73 11.96-3.39-7.84-3.36 7.84zm13.8 2.15v5.63h-3.39v-14.78h3.39v3.33c1.05-2.52 2.79-3.72 5.24-3.61v3.58h-.2c-1.53 0-2.75.5-3.67 1.5-.91 1-1.37 2.45-1.37 4.35m13.26-6.24v7.25c0 1.23.61 1.85 1.82 1.85a4.7 4.7 0 0 0 2.1-.5v2.77c-.9.5-1.91.76-3.05.76-2.84 0-4.26-1.45-4.26-4.34v-7.78h-1.88v-2.91h1.88v-4.06h3.39v4.06h3.98v2.91h-3.98Zm18.69 7.5c0 1.49-.51 2.64-1.54 3.44s-2.34 1.2-3.95 1.2c-2.32 0-4.41-.74-6.27-2.21l1.51-2.3c1.61 1.21 3.22 1.82 4.84 1.82.73 0 1.29-.14 1.69-.43s.6-.68.6-1.16v-.06c0-.62-.54-1.13-1.62-1.54-.22-.07-.78-.25-1.68-.53-.67-.19-1.23-.37-1.68-.56s-.92-.44-1.43-.77c-.5-.33-.88-.74-1.13-1.25s-.38-1.09-.38-1.76v-.06c0-1.36.5-2.45 1.5-3.28 1-.82 2.25-1.23 3.77-1.23q2.88 0 5.43 1.68l-1.34 2.41c-1.53-.93-2.92-1.4-4.17-1.4-.65 0-1.16.14-1.53.41-.36.27-.55.63-.55 1.08v.06c0 .45.25.81.74 1.08s1.26.57 2.31.91c.13.04.22.07.28.08q.975.315 1.65.6c.45.2.92.46 1.41.8s.87.75 1.13 1.23q.39.735.39 1.68v.06Zm29.76 2.94-2.55 1.82-2.6-2.66c-1.83 1.7-3.84 2.55-6.02 2.55-1.85 0-3.37-.51-4.58-1.54-1.2-1.03-1.81-2.39-1.81-4.09q0-3.72 4.17-5.52c-1.08-1.4-1.62-2.77-1.62-4.12s.51-2.55 1.54-3.51 2.39-1.44 4.09-1.44c1.53 0 2.78.45 3.75 1.36s1.46 2.04 1.46 3.4c0 2.33-1.44 4.04-4.31 5.12l3.36 3.42q1.065-1.59 2.1-3.78l2.6 1.37c-.9 1.79-1.78 3.29-2.66 4.48zm-7.11-2.85-4.37-4.45c-1.74.75-2.6 1.84-2.6 3.28 0 .84.31 1.53.92 2.07.62.54 1.4.81 2.35.81 1.27 0 2.5-.57 3.7-1.71m-.11-10.7c0-.67-.21-1.21-.62-1.62s-.95-.62-1.62-.62-1.25.22-1.68.66-.64 1.01-.64 1.72c0 .88.49 1.86 1.48 2.94 1.05-.37 1.82-.8 2.32-1.29s.76-1.08.76-1.79m33.18 6.72h-9.35v8.26h-3.44v-19.6h3.44v8.15h9.35v-8.15h3.44v19.6h-3.44zm18.55 1.82v-8.34h3.39v14.78h-3.39v-2.3c-1.18 1.74-2.72 2.6-4.62 2.6-1.64 0-2.93-.51-3.86-1.54s-1.4-2.41-1.4-4.14v-9.41h3.39v8.4c0 1.16.28 2.05.83 2.67s1.33.94 2.34.94 1.79-.33 2.41-.98.92-1.55.92-2.69Zm20.48-6.05c1.33-1.74 3-2.6 5.01-2.6 1.62 0 2.89.49 3.81 1.48.91.99 1.37 2.38 1.37 4.17v9.44h-3.39v-8.4c0-1.18-.26-2.07-.78-2.69s-1.26-.92-2.21-.92-1.72.32-2.3.97q-.87.96-.87 2.7v8.34h-3.39v-8.43c0-1.14-.26-2.02-.78-2.65-.52-.62-1.26-.94-2.21-.94s-1.72.33-2.3.99q-.87.99-.87 2.7v8.32h-3.39V100.3h3.39v2.24c1.23-1.7 2.73-2.55 4.51-2.55 2.05 0 3.52.87 4.4 2.6Zm27.34 12.49h-3.36v-1.82c-1.19 1.42-2.79 2.13-4.79 2.13-1.47 0-2.72-.41-3.74-1.22s-1.53-1.93-1.53-3.35v-.06q0-2.325 1.65-3.54c1.1-.81 2.55-1.22 4.34-1.22 1.44 0 2.8.21 4.09.62v-.36c0-1.03-.31-1.81-.94-2.35-.62-.54-1.53-.81-2.7-.81-1.34 0-2.75.31-4.23.92l-.92-2.72c1.83-.82 3.71-1.23 5.63-1.23q3.225 0 4.86 1.62c1.09 1.08 1.64 2.62 1.64 4.62v8.76Zm-3.28-5.35v-.92c-1.01-.39-2.14-.59-3.39-.59q-1.59 0-2.49.63c-.9.63-.9 1-.9 1.75v.06c0 .67.27 1.2.81 1.6.54.39 1.22.59 2.04.59 1.14 0 2.08-.29 2.81-.87.74-.58 1.11-1.33 1.11-2.24Zm11.33-3v8.34h-3.39V100.3H927v2.3c1.18-1.74 2.72-2.6 4.62-2.6 1.64 0 2.93.51 3.86 1.54s1.4 2.41 1.4 4.14v9.41h-3.39v-8.4c0-1.16-.28-2.05-.83-2.67s-1.33-.94-2.34-.94-1.79.33-2.41.98-.92 1.55-.92 2.69Zm18.15-8.7h-3.64v-3.22h3.64zm-.11 17.05h-3.39v-14.78h3.39zm8.86-11.87v7.25c0 1.23.61 1.85 1.82 1.85a4.7 4.7 0 0 0 2.1-.5v2.77c-.9.5-1.91.76-3.05.76-2.84 0-4.26-1.45-4.26-4.34v-7.78h-1.88v-2.91h1.88v-4.06h3.39v4.06h3.98v2.91h-3.98Zm11.42-5.18h-3.64v-3.22h3.64zm-.12 17.05h-3.39v-14.78h3.39zm7.47-6.19c.19 1.18.66 2.1 1.43 2.76s1.71.99 2.83.99c1.46 0 2.79-.59 4-1.76l1.99 1.76c-1.53 1.85-3.55 2.77-6.05 2.77-2.17 0-3.97-.72-5.42-2.16s-2.17-3.29-2.17-5.54.68-3.99 2.04-5.49c1.36-1.49 3.09-2.24 5.18-2.24 2.26 0 4 .76 5.24 2.28 1.23 1.52 1.85 3.42 1.85 5.7 0 .17-.02.48-.06.92h-10.86Zm-.03-2.24h7.59c-.11-1.14-.49-2.07-1.15-2.8-.65-.73-1.52-1.09-2.6-1.09q-1.545 0-2.58 1.08c-1.035 1.08-1.11 1.66-1.26 2.81m25.38 4.06c0 1.49-.51 2.64-1.54 3.44s-2.34 1.2-3.95 1.2c-2.32 0-4.41-.74-6.27-2.21l1.51-2.3c1.61 1.21 3.22 1.82 4.84 1.82.73 0 1.29-.14 1.69-.43s.6-.68.6-1.16v-.06c0-.62-.54-1.13-1.62-1.54-.22-.07-.78-.25-1.68-.53-.67-.19-1.23-.37-1.68-.56s-.92-.44-1.43-.77c-.5-.33-.88-.74-1.13-1.25s-.38-1.09-.38-1.76v-.06c0-1.36.5-2.45 1.5-3.28 1-.82 2.25-1.23 3.77-1.23q2.88 0 5.43 1.68l-1.34 2.41c-1.53-.93-2.92-1.4-4.17-1.4-.65 0-1.16.14-1.53.41-.36.27-.55.63-.55 1.08v.06c0 .45.25.81.74 1.08s1.26.57 2.31.91c.13.04.22.07.28.08q.975.315 1.65.6c.45.2.92.46 1.41.8s.87.75 1.13 1.23q.39.735.39 1.68v.06Z"/><path d="M497.72 48.07h1.33v82.76h-1.33z"/><path fill="#58595b" d="M540.74 76.19c0 3.4-1.18 6.23-3.55 8.5s-5.4 3.4-9.1 3.4h-9.28v-23.8h9.28c3.69 0 6.73 1.13 9.1 3.38 2.37 2.26 3.55 5.07 3.55 8.45zm-5.48.07v-.07c0-2.11-.66-3.83-1.99-5.17s-3.05-2.01-5.19-2.01h-4.05v14.35h4.05c2.13 0 3.86-.66 5.19-1.97s1.99-3.03 1.99-5.13m28.66 11.84H545.8V64.3h17.95v4.66H551v4.83h11.22v4.66H551v5h12.92v4.66Zm24.28-15.51c0 2.65-.91 4.71-2.72 6.17s-4.11 2.19-6.9 2.19h-3.98v7.14h-5.24v-23.8h9.72c2.81 0 5.03.75 6.66 2.26s2.45 3.5 2.45 5.97v.07Zm-5.31.1v-.07c0-1.16-.37-2.04-1.12-2.67-.75-.62-1.79-.93-3.13-.93h-4.05v7.28h4.15q1.905 0 3.03-1.02c1.125-1.02 1.12-1.54 1.12-2.58Zm30.93 15.41h-5.47l-2.18-5.34h-10.06l-2.18 5.34h-5.34l10.2-23.97h4.83zm-9.52-9.97-3.16-7.72-3.16 7.72zm33.97 9.97h-6.12l-5.1-7.62h-4.11v7.62h-5.24V64.3h10.88c2.81 0 5.01.7 6.6 2.09s2.38 3.31 2.38 5.76v.07q0 5.475-5.1 7.38zm-6.02-15.61v-.07c0-1.11-.36-1.96-1.09-2.53-.73-.58-1.73-.87-3.03-.87h-5.2v6.83h5.3c1.25 0 2.23-.31 2.94-.92s1.07-1.43 1.07-2.45Zm28.44-3.37h-7.24v18.97h-5.24V69.12h-7.24v-4.83h19.72zm27.82 18.98h-5.2V72.56l-6.7 10.17h-.14l-6.63-10.06v15.44h-5.13v-23.8h5.64l6.26 10.06 6.26-10.06h5.64v23.8Zm24.47 0h-18.12V64.3h17.95v4.66h-12.75v4.83h11.22v4.66h-11.22v5h12.92v4.66Zm26.59 0h-4.45l-11.53-15.13V88.1h-5.17V64.3h4.83l11.15 14.65V64.3h5.17zm23.74-18.98h-7.24v18.97h-5.24V69.12h-7.24v-4.83h19.72zm39.47 7.07c0 3.42-1.21 6.33-3.62 8.72s-5.43 3.59-9.06 3.59-6.64-1.18-9.03-3.55-3.59-5.26-3.59-8.69v-.07c0-3.42 1.21-6.33 3.62-8.72s5.43-3.59 9.06-3.59 6.63 1.18 9.03 3.55c2.39 2.37 3.59 5.26 3.59 8.69zm-5.47.07v-.07c0-2.08-.68-3.85-2.04-5.3s-3.08-2.18-5.17-2.18-3.8.71-5.13 2.14c-1.34 1.43-2.01 3.18-2.01 5.27v.07c0 2.09.68 3.85 2.04 5.3s3.08 2.18 5.17 2.18 3.8-.71 5.13-2.14c1.34-1.43 2.01-3.18 2.01-5.27m28.65-7.2h-12.89v5.07h11.36v4.76h-11.36v9.21h-5.24V64.3h18.12v4.76Zm39.21 19.04h-5.2V72.56l-6.7 10.17h-.14l-6.63-10.06v15.44h-5.13v-23.8h5.64l6.26 10.06 6.26-10.06h5.64v23.8Zm26.81-10.38c0 3.54-.92 6.21-2.77 8.02s-4.4 2.72-7.67 2.72-5.77-.9-7.58-2.7-2.72-4.43-2.72-7.87v-13.6h5.24v13.46c0 1.9.45 3.36 1.34 4.37s2.16 1.51 3.79 1.51 2.9-.49 3.79-1.46 1.34-2.39 1.34-4.25V64.29h5.24zm22.92 3.34c0 2.31-.8 4.12-2.4 5.42s-3.71 1.96-6.34 1.96c-3.9 0-7.26-1.27-10.1-3.81l3.09-3.71c2.33 1.93 4.7 2.89 7.11 2.89 1.07 0 1.9-.2 2.52-.59.61-.4.92-.95.92-1.65v-.07c0-.68-.32-1.23-.95-1.65s-1.92-.88-3.84-1.38c-1.36-.34-2.46-.67-3.3-1s-1.64-.77-2.4-1.31-1.32-1.22-1.67-2.02-.53-1.79-.53-2.94v-.07c0-2.15.78-3.89 2.33-5.2s3.55-1.97 6-1.97c3.38 0 6.32 1.01 8.84 3.03l-2.72 3.94c-2.24-1.56-4.31-2.35-6.19-2.35-.98 0-1.73.19-2.26.58s-.8.88-.8 1.5v.07c0 .77.33 1.35.99 1.73.66.39 2.04.85 4.15 1.39 2.58.68 4.49 1.55 5.71 2.6s1.84 2.57 1.84 4.54zm10.42 7.04h-5.24V64.3h5.24zm27.24-3.85c-1.31 1.41-2.73 2.46-4.23 3.18-1.51.71-3.35 1.07-5.53 1.07-3.49 0-6.4-1.18-8.72-3.54s-3.49-5.26-3.49-8.7v-.07c0-3.45 1.17-6.36 3.5-8.74q3.495-3.57 8.91-3.57 3.165 0 5.37.93c1.47.62 2.81 1.54 4.01 2.74l-3.33 3.84c-1.97-1.79-4-2.69-6.09-2.69-1.97 0-3.62.72-4.93 2.16s-1.97 3.19-1.97 5.25v.07c0 2.09.65 3.85 1.96 5.3 1.3 1.45 2.95 2.18 4.95 2.18 1.27 0 2.37-.23 3.3-.68s1.92-1.16 2.96-2.11l3.33 3.37Z"/><path fill="maroon" d="m478.01 52.49.03-.05v-.06c-.06-1.05-.09-2.4-.09-3.82v-.28l-.27.06c-.35.08-2.14.08-3.87.08h-5.34c-1.09 0-2.06-.02-3.35-.09h-.06l-.05.02c-.24.12-.28.46-.29.56-.02.25.06.46.2.55l.56.09c1.47.18 1.55.34 1.55 3.44v10.44c0 3.07-.07 3.23-1.54 3.4l-.8.1-.05.05c-.17.16-.19.43-.16.63.03.22.13.38.27.45l.05.03h.06c1.36-.06 2.34-.09 3.62-.09 1.17 0 2.18.03 3.85.09h.06l.05-.02c.19-.09.27-.35.28-.56.01-.25-.06-.45-.21-.54l-1.09-.12c-1.48-.13-1.57-.32-1.57-3.4v-4.03q0-.56.74-.56h1.97c1.02 0 1.78.02 2.17.14.41.13.63.4.78.94l.31 1.2.05.05c.29.25.9.23 1.09-.05l.04-.06v-.07c0-.3-.02-.69-.05-1.12-.03-.53-.07-1.12-.07-1.7s.03-1.21.07-1.76c.03-.45.05-.86.05-1.17v-.07l-.04-.06c-.14-.21-.43-.23-.55-.23-.24 0-.45.08-.56.21l-.31 1.25c-.16.7-.36.77-.58.85-.31.1-1.2.16-2.39.16h-1.97q-.74 0-.74-.56v-6.12q0-.94.65-.94h1.77c1.2 0 2.15 0 2.76.17 1.24.32 1.62 1.16 1.87 2.58v.08l.07.05c.11.1.27.15.44.15.22 0 .5-.09.6-.3Zm-19.47 5.64c0-4.9-3.22-10.17-10.29-10.17-6.02 0-10.55 4.5-10.55 10.46 0 5 3.62 10.06 10.55 10.06 5.87 0 10.29-4.45 10.29-10.35m-3.35.91c0 5.98-3.54 8.1-6.57 8.1-5.99 0-7.58-6.06-7.58-9.64 0-6.05 3.62-8.19 6.71-8.19 5.49 0 7.44 5.24 7.44 9.73m-25.51 49.58c0 12.53 9.33 23.6 24.79 23.6 13.44 0 24.16-10.24 24.16-24.3 0-12.25-8.08-23.88-24.16-23.88-14.34 0-24.79 10.65-24.79 24.58m6.96-2.23c0-15.25 9.4-20.19 16.64-20.19 13.3 0 18.38 12.39 18.38 23.88 0 13.71-7.94 19.98-16.29 19.98-13.72 0-18.73-13.37-18.73-23.67m-13.6-56.93a.66.66 0 0 0 .21-.56c-.02-.22-.13-.42-.3-.52l-.06-.04h-.07c-2.06.12-3.28.12-5.46 0h-.06l-.05.02c-.16.08-.27.24-.31.45-.04.23.03.48.19.63l.06.06.6.07c.56.07.91.21 1.02.28-.09.42-1.11 2.3-1.72 3.44l-.13.25c-.7 1.35-1.5 2.81-2.52 4.56-.76-1.38-1.51-2.9-2.23-4.37-.28-.58-.57-1.15-.85-1.72-.21-.42-.86-1.9-.88-2.13 0-.06.13-.18 1.03-.3l.45-.07.05-.05c.16-.16.22-.44.16-.69a.54.54 0 0 0-.34-.4h-.04l-.04-.01c-.71.06-1.75.08-3.09.08s-2.41-.03-3.35-.09h-.07l-.06.03c-.14.08-.24.23-.27.43-.04.23.02.48.16.64l.05.06.89.16c.77.13 1.15.19 2.13 2.09l3.42 6.67c.82 1.58.9 1.91.9 3.5v1.48c0 3.15-.07 3.31-1.54 3.46l-.98.09-.06.06c-.17.17-.19.44-.16.63.04.21.14.38.27.44l.05.03h.06c1.56-.06 2.58-.09 3.79-.09s2.22.03 3.94.09h.06l.05-.02c.14-.07.24-.23.27-.45.03-.2 0-.47-.16-.63l-.06-.06-1.18-.09c-1.34-.1-1.53-.32-1.53-3.46V61.9c0-2.17.06-2.39 1.33-4.59l1.83-3.16c.17-.29.32-.56.48-.83 1.14-1.99 1.97-3.43 3.2-3.65l.87-.16.05-.04Zm-11.25 35.5c-1.19-.28-4.88-1.04-8.84-1.04-10.51 0-17.41 3.27-22.07 8.15-4.32 4.59-6.27 10.58-6.27 16.5s2.23 11.63 6.41 15.8c5.36 5.43 12.95 7.73 21.24 7.73 3.76 0 8.77-.84 12.46-1.81 1.32-.35 2.58-.63 3.41-.63.28-.21.28-.63.07-.83-1.25-.49-1.67-2.16-1.67-4.94v-3.9c0-3.55.07-5.5 2.99-5.85l1.11-.14c.49-.42.42-1.46-.07-1.74-2.3.14-4.67.21-7.38.21-4.11 0-7.94-.07-9.96-.21-.49.21-.56 1.46 0 1.74l3.06.35c4.32.49 4.52.91 4.52 6.75v2.79c0 2.23-.35 3.48-.69 3.97-.77 1.18-3.34 2.09-7.66 2.09-14 0-20.89-10.52-20.89-23.88 0-10.44 5.92-20.05 19.43-20.05 7.1 0 12.32 2.37 14.27 9.89.42.42 1.67.35 1.88-.21-.63-4.18-1.05-7.8-1.05-10.09-.84.14-2.99-.35-4.31-.63ZM401 47.98l.02-.08-.04-.08c-.11-.22-.41-.24-.53-.24-.07 0-.18 0-.27.05l-.07.03-.04.07c-.37.65-.53.7-2.07.7h-11.99c-1.3 0-1.88-.07-2-.72v-.07l-.06-.05c-.08-.08-.21-.12-.4-.12-.07 0-.3 0-.43.09l-.08.05-.02.09c-.2 1.16-.63 3-1.09 4.29l-.03.09.04.09c.18.35.77.52 1.09.28l.05-.04.02-.05c.29-.67.57-1.31 1.25-1.93.64-.59 2.09-.67 3.42-.67h1.6q.65 0 .65.7v12.97c0 3.14-.18 3.28-1.59 3.4l-1.04.09-.1.03c-.17.11-.27.32-.26.58 0 .2.09.44.28.53l.05.02h.06c1.78-.06 2.85-.09 4.02-.09s2.07.03 3.79.09h.06l.05-.02c.24-.12.28-.46.29-.56.02-.25-.06-.45-.2-.55l-1.03-.12c-1.45-.12-1.54-.32-1.54-3.4V50.42c0-.29 0-.57.05-.62s.36-.05.57-.05h2.06c1.55 0 2.61.22 3.23.68.27.2.51.94.64 1.96v.06l.05.05c.11.13.3.21.53.21.28 0 .51-.12.6-.31l.03-.06v-.06c-.09-.83.11-3.17.42-4.33Zm-26.45 15.41V53.06c0-3.17.09-3.37 1.56-3.49l.79-.06.05-.03c.15-.1.22-.3.2-.55 0-.1-.05-.44-.28-.56l-.05-.03h-.06c-1.37.06-2.4.09-3.59.09s-2.24-.03-3.65-.09h-.06l-.05.02c-.24.12-.28.46-.28.56-.02.25.06.45.2.55l.05.03.78.06c1.48.13 1.57.32 1.57 3.49v10.33c0 3.12-.07 3.29-1.57 3.46l-.8.1-.05.05c-.17.16-.19.43-.16.63.03.21.13.38.27.45l.05.03h.06c1.48-.06 2.45-.09 3.65-.09s2.11.03 3.59.09h.06l.05-.02c.24-.12.28-.46.28-.56.02-.25-.06-.45-.2-.55l-.82-.12c-1.5-.18-1.57-.34-1.57-3.46Zm-5.86 65.85c-2.99-.35-3.9-1.39-5.92-7.38l-9.54-27.99c-1.04-3.06-2.16-6.27-3.06-9.33-.14-.49-.63-.63-1.04-.63-.77.91-1.95 2.16-3.62 2.65.21 1.11-.21 2.43-1.18 4.94l-7.1 18.8c-2.92 7.8-4.87 12.32-6.13 15.53-.97 2.51-2.51 3.27-4.18 3.41l-2.3.21c-.42.35-.28 1.46.14 1.74 1.88-.07 4.38-.21 6.68-.21 3.27.07 5.43.07 7.24.21.62-.28.62-1.39.14-1.74l-2.3-.21c-1.67-.14-2.02-.56-2.02-1.39 0-.77.49-2.65 1.53-5.78l2.44-7.31c.49-1.46.9-1.67 2.65-1.67h10.51c2.09 0 2.37.21 2.86 1.74l3.06 9.47c.56 1.67.91 2.92.91 3.69 0 .7-.97 1.12-2.44 1.25l-2.02.21c-.49.35-.42 1.46.14 1.74 2.02-.07 4.66-.21 8.01-.21 3.13 0 5.57.07 8.42.21.35-.28.49-1.39 0-1.74zm-17.96-18.94h-8.56c-1.95 0-2.02-.07-1.46-1.67l4.39-12.11c.77-2.09 1.46-3.76 1.67-4.11h.14c.42.84 1.04 2.72 1.6 4.39l3.76 11.35c.63 1.88.49 2.16-1.53 2.16Zm3.92-57.99c0-1.12.42-3 3.23-3 2.56 0 3.34 1.66 3.73 3.11l.04.08c.09.11.25.18.44.18.22 0 .51-.09.64-.28l.04-.06v-.07c0-1.19-.24-2.84-.53-3.62l-.05-.15h-.15c-.21 0-.59-.05-.96-.16-.69-.19-1.78-.39-2.75-.39-3.67 0-6.14 2.09-6.14 5.21 0 2.65 2.02 4.38 3.23 5.18l2.76 1.8c2 1.29 2.28 2.62 2.28 3.87 0 1.55-1.05 3.11-3.4 3.11-2.94 0-4.22-2.26-4.78-4.16l-.03-.06c-.09-.13-.24-.2-.44-.2s-.47.07-.62.28l-.04.06v.08c.06 1.31.43 3.46.81 4.16l.03.05.05.03c.57.33 2.16 1.1 4.64 1.1 3.83 0 6.4-2.25 6.4-5.59 0-2.32-1.22-4.2-3.73-5.76l-2.32-1.45c-.88-.55-2.36-1.71-2.36-3.38Zm-7.31 15.84c.13-.11.2-.28.18-.45a.41.41 0 0 0-.26-.34h-.06c-.69-.06-1.39-.35-1.87-.78-2-1.67-3.59-4.12-5.79-7.66-.15-.24-.17-.36-.17-.4.96-.4 3.69-1.82 3.69-5.02 0-2.43-1.38-3.66-2.53-4.26-1.45-.79-3.32-.9-4.95-.9-2.66 0-4.72.07-6.49.23l-.08.02c-.17.08-.28.27-.3.5-.02.25.07.49.24.61l.05.03.99.12c.95.12 1.08.32 1.08 3.17v10.42c0 3.07-.07 3.23-1.54 3.4l-.81.1-.06.07c-.16.19-.18.47-.14.66.04.2.14.34.27.41l.05.03h.06c1.29-.06 2.34-.09 3.62-.09 1.2 0 2.21.03 3.44.09h.06l.05-.02c.21-.11.27-.38.28-.5.03-.26-.04-.48-.18-.6l-.05-.04-.67-.1c-1.49-.21-1.55-.33-1.55-3.41v-3.66q0-.41 1.14-.41c1.11 0 1.49.27 1.88.83.44.64.95 1.45 1.45 2.24.52.82 1.01 1.6 1.39 2.14 1.99 2.84 3.5 3.75 6.19 3.75.56 0 1.05-.06 1.34-.15l.07-.04Zm-8.74-10.8c-.83.63-1.96.71-2.85.71-1.31 0-1.71-.05-1.83-.09-.03-.12-.03-.46-.03-.79v-6.79c0-.65 0-.71 1.66-.71 3.26 0 4.42 2.29 4.42 4.25 0 1.61-.43 2.7-1.36 3.42Zm-14.99 6.54v-.07l-.02-.06c-.12-.28-.43-.4-.68-.4-.14 0-.27.04-.38.11l-.07.08c-.83 1.66-1.58 2.5-1.96 2.71-.62.31-1.5.41-3.61.41-2.42 0-3.04-.29-3.35-.6-.41-.44-.49-1.38-.49-2.86v-4.09q0-.56.74-.56h1.68c1.01 0 1.77.02 2.18.14.4.1.61.36.74.94l.26 1.13.05.09c.11.13.31.21.54.21.27 0 .48-.1.58-.27l.03-.05v-.06c0-.28-.02-.66-.05-1.08-.03-.53-.07-1.13-.07-1.71s.04-1.23.07-1.78c.03-.44.05-.84.05-1.15v-.06l-.03-.05c-.1-.17-.31-.27-.58-.27-.23 0-.43.08-.54.21l-.28 1.29c-.13.66-.29.76-.55.85-.31.1-1.18.16-2.39.16h-1.68q-.74 0-.74-.59v-5.8q0-.94.65-.94h2.09c1.23 0 2.17.03 2.76.17 1.32.33 1.59 1.17 1.99 2.43l.05.17.04.07c.1.12.27.19.47.19s.48-.07.61-.26l.05-.07-.04-.43c-.15-1.69-.29-3.12-.45-3.57l-.07-.19-.2.05c-.32.08-2.12.08-3.86.08h-5.45c-1.12 0-2.07-.02-3.41-.09h-.06l-.05.02c-.24.12-.28.46-.29.56-.02.25.06.46.2.55l.56.09c1.49.18 1.57.37 1.57 3.44v10.44c0 3.14-.18 3.28-1.6 3.4l-1.04.09-.06.06c-.16.16-.19.43-.16.63.03.22.13.38.27.45l.05.03h.06c1.68-.06 2.69-.09 3.94-.09h2.61c2.53 0 5.07.03 7.77.09h.14l.06-.13c.39-.81 1.12-3.07 1.32-4.08Zm-19.9-14.45c.16-.16.18-.43.16-.62-.03-.21-.12-.37-.26-.45l-.06-.03h-.07c-.97.06-1.86.09-2.8.09-1.14 0-2.23-.03-3-.09h-.07l-.06.03c-.16.09-.27.28-.29.51s.05.45.2.57l.05.05.59.06c1.01.12 1.11.33 1.11.33 0 .19-.03.48-.24 1.05-.5 1.26-1.88 4.59-2.69 6.49-.22.49-.49 1.14-.79 1.85-.55 1.3-1.22 2.89-1.79 4.14-1.37-3.15-2.64-6.32-3.92-9.55-.85-2.08-1.34-3.6-1.43-3.98.04-.09.3-.22 1.16-.33l.5-.07.05-.04c.15-.13.22-.34.2-.57a.67.67 0 0 0-.29-.52l-.06-.03h-.07c-1.29.06-2.3.09-3.5.09s-2.14-.03-3-.09h-.07l-.06.03c-.17.1-.28.3-.3.52s.06.43.21.56l.05.05.59.06c1.13.13 1.51.65 2.17 2.24l5.11 12.59c.61 1.51 1.05 2.8 1.32 3.83l.03.11.1.04c.17.07.34.1.52.1.17 0 .32-.04.44-.12l.06-.04.02-.07c.5-1.56 1.89-4.98 3.01-7.55l1.57-3.57c1.34-3.05 2.46-5.35 3.23-6.65.37-.6.76-.86 1.33-.91l.96-.06.06-.06Zm-18.95 40.39c-5.29 4.11-8.77 10.72-8.77 18.45 0 8.98 4.32 15.32 9.89 19.15 5.08 3.41 11.07 4.66 17.34 4.66 4.46 0 9.47-1.04 11-1.6.77-.28 1.6-.56 2.44-.7 1.04-1.32 2.85-5.92 3.34-9.54-.28-.49-1.32-.63-1.81-.28-1.6 4.11-5.57 9.96-14.55 9.96-11.42 0-20.68-8.08-20.68-22.7s9.05-21.17 19.7-21.17c10.1 0 13.23 5.43 14.27 10.17.49.42 1.53.35 1.88-.14-.56-4.25-.9-8.63-.97-10.24-.63.07-1.11-.07-1.95-.28-3.27-.91-8.56-1.67-12.32-1.67-7.24 0-13.72 1.95-18.8 5.92Zm-8.9-26.44V53.06c0-3.14.1-3.37 1.57-3.49l.78-.06.05-.03c.15-.1.22-.3.2-.55 0-.1-.05-.44-.29-.56l-.05-.02h-.06c-1.37.06-2.4.09-3.59.09s-2.24-.03-3.65-.09h-.06l-.05.02c-.24.12-.28.46-.29.56-.02.25.06.45.2.55l.05.03.78.06c1.46.12 1.57.35 1.57 3.49v10.33c0 3.12-.07 3.29-1.57 3.46l-.8.1-.05.05c-.17.17-.19.44-.16.63.03.21.14.38.27.45l.05.03h.06c1.47-.06 2.44-.09 3.65-.09s2.15.03 3.59.09h.06l.05-.02c.24-.12.28-.46.29-.56.01-.25-.06-.45-.2-.55l-.82-.12c-1.5-.18-1.57-.34-1.57-3.46ZM261.3 120.4V95.61c0-7.38.14-8.56 4.25-8.91l1.74-.14c.42-.28.28-1.53-.14-1.74-3.48.14-5.85.21-8.63.21-2.92 0-5.29-.07-8.77-.21-.42.21-.56 1.46-.14 1.74l1.74.14c4.11.35 4.25 1.53 4.25 8.91v24.79c0 7.38-.14 8.35-4.25 8.84l-1.74.21c-.42.42-.28 1.53.14 1.74 3.48-.14 5.85-.21 8.77-.21s5.15.07 8.63.21c.42-.21.56-1.46.14-1.74l-1.74-.21c-4.11-.49-4.25-1.46-4.25-8.84m3.59-70.96c.14-.14.21-.37.18-.59a.64.64 0 0 0-.28-.48l-.06-.04h-.07c-.95.06-1.71.09-2.98.09-1.02 0-1.98-.02-3.41-.09h-.04l-.04.01c-.17.06-.29.22-.33.44-.05.26.03.52.2.67l.05.04.56.07c1 .12 1.5.27 1.64.48.35.55.55 2.69.55 5.89v6.21c0 .28 0 .61-.02.83-1.01-1.04-2.06-2.22-3.37-3.68l-4.03-4.53c-2.87-3.22-4.51-5.33-4.89-6.28l-.06-.17-.18.03c-.35.05-.82.08-1.3.08-.51 0-2.05 0-3.26-.09h-.06l-.06.02c-.15.08-.26.24-.29.44-.04.24.03.49.18.64l.06.06.57.07c.77.1 1.35.31 1.66.63.54.59.58 1.13.58 1.94v8.65c0 1.4 0 4.69-.36 5.62-.07.15-.31.35-1.1.45l-.86.09-.06.06c-.13.13-.2.34-.18.55.02.22.11.4.26.51l.06.05h.08c1.01-.06 1.79-.09 3.01-.09.98 0 1.96.02 3.39.09h.08l.06-.04c.14-.1.23-.25.26-.44a.8.8 0 0 0-.15-.6l-.06-.08-1-.1c-.7-.06-1.18-.22-1.3-.44-.31-.55-.49-2.7-.49-5.89V54.2c0-.52 0-1.07.06-1.47.46.52 1.23 1.42 1.92 2.24.47.56.91 1.08 1.2 1.41l6.73 7.66c2.24 2.55 3.31 3.81 3.7 4.36l.07.09h.12c.38 0 .66-.18.76-.47l.02-.05v-.05c-.04-.34-.09-1.49-.09-5.05v-7.33c0-1.49-.02-4.58.41-5.48.04-.07.38-.32 1.46-.49l.48-.07.05-.05Zm-26.01-.04c.13-.16.19-.4.15-.61a.58.58 0 0 0-.27-.42l-.06-.04h-.07c-1.01.06-1.79.09-3.03.09-1.11 0-2.19-.03-3.29-.09h-.07l-.06.04c-.13.09-.23.25-.25.45-.03.22.02.43.15.57l.06.07.82.06c.67.05 1.12.23 1.27.5.34.6.52 2.69.52 5.89v3.34c0 3.42-.97 7.49-5.58 7.49-3.87 0-5.67-2.39-5.67-7.52v-6.27c0-3.08.1-3.31 1.54-3.43l.75-.06.05-.03c.14-.1.22-.29.2-.54-.01-.2-.09-.45-.28-.55l-.05-.02h-.06c-1.38.06-2.35.09-3.56.09s-2.22-.03-3.59-.09h-.06l-.05.02c-.19.09-.27.34-.29.54-.02.25.06.44.2.54l.05.03.78.06c1.44.13 1.54.35 1.54 3.43v6.85c0 3.51.72 5.67 2.34 7.02 1.28 1.09 3.15 1.65 5.57 1.65 2.29 0 4.47-.84 5.7-2.19 1.41-1.51 2.09-3.82 2.09-7.08v-3.28c0-1.47 0-4.92.39-5.83.13-.29.63-.52 1.26-.57l.79-.06.06-.07Zm-33.35 37.16c.42-.28.28-1.53-.14-1.74-2.99.14-5.36.21-8.08.21-2.99 0-5.36-.14-8.77-.21-.42.21-.56 1.46-.14 1.74l1.81.14c3.62.28 4.11 1.46 4.11 8.77v25.06c0 7.31-.14 8.01-4.04 8.7l-1.18.21c-.42.42-.28 1.53.14 1.74 2.72-.07 5.08-.21 8.08-.21 2.71 0 5.08.07 8.84.21.42-.21.56-1.46.14-1.74l-2.02-.21c-3.9-.42-4.25-1.39-4.25-8.7v-9.82c0-2.09.14-2.23 3.48-2.23h19.91c3.34 0 3.48.14 3.48 2.23v9.82c0 7.31 0 8.01-4.25 8.7l-1.32.21c-.42.42-.28 1.53.14 1.74 3.06-.14 5.57-.21 8.42-.21s5.08.07 8.43.21c.42-.21.56-1.46.14-1.74l-1.67-.21c-4.04-.49-4.18-1.39-4.18-8.7V95.47c0-7.31.14-8.36 4.18-8.77l1.46-.14c.42-.28.28-1.53-.14-1.74-3.13.14-5.5.21-8.22.21-2.85 0-5.22-.07-8.42-.21-.42.21-.56 1.46-.14 1.74l1.32.14c4.11.42 4.25 1.46 4.25 8.77v8.01c0 2.16-.14 2.23-3.48 2.23h-19.91c-3.34 0-3.48-.07-3.48-2.23v-8.01c0-7.31.14-8.36 4.18-8.77zm-2.81-22.67v-.07l-.02-.06c-.13-.28-.43-.4-.68-.4-.14 0-.27.04-.37.11l-.07.08c-.83 1.66-1.58 2.5-1.96 2.71-.62.31-1.5.41-3.61.41-2.42 0-3.04-.29-3.35-.6-.41-.44-.49-1.38-.49-2.86v-4.09q0-.56.74-.56h1.68c1.01 0 1.77.02 2.18.14.4.1.61.36.74.94l.26 1.13.05.09c.11.13.31.21.54.21.26 0 .48-.1.58-.27l.03-.05v-.06c0-.28-.02-.66-.05-1.08-.03-.53-.07-1.13-.07-1.71s.04-1.23.07-1.78c.03-.44.05-.84.05-1.15v-.06l-.03-.05c-.1-.17-.31-.27-.58-.27-.23 0-.43.08-.54.21l-.28 1.29c-.13.66-.29.76-.55.85-.31.1-1.18.16-2.39.16h-1.68q-.74 0-.74-.59v-5.8q0-.94.65-.94h2.09c1.23 0 2.17.03 2.76.17 1.32.33 1.59 1.17 1.99 2.43l.06.17.04.07c.1.12.27.19.47.19s.48-.07.61-.26l.04-.07-.04-.43c-.15-1.69-.29-3.12-.44-3.56l-.07-.19-.2.05c-.32.08-2.12.08-3.86.08h-5.45c-1.12 0-2.07-.02-3.41-.09h-.06l-.05.02c-.24.12-.28.46-.29.56-.02.25.06.46.2.55l.56.09c1.49.18 1.57.37 1.57 3.44v10.44c0 3.14-.18 3.28-1.6 3.4l-1.04.09-.06.06c-.17.17-.19.44-.16.63.03.21.13.38.27.45l.05.03h.06c1.68-.06 2.69-.09 3.94-.09h2.61c2.53 0 5.07.03 7.77.09h.14l.06-.13c.39-.81 1.12-3.06 1.32-4.08Zm-24.24-.44V53.01c0-3.09.09-3.28 1.54-3.44l.61-.06.1-.04c.14-.1.22-.3.2-.55 0-.1-.05-.44-.28-.56l-.05-.03h-.06c-1.4.06-2.36.09-3.42.09-1.26 0-2.27-.03-3.5-.09h-.06l-.05.02c-.24.12-.28.46-.29.56-.02.25.06.45.2.55l.65.09c1.48.15 1.57.34 1.57 3.44v3.33q0 .71-1.23.71h-8.3q-1.23 0-1.23-.71v-3.33c0-3.09.09-3.28 1.54-3.44l.55-.06.1-.04c.15-.1.22-.3.2-.55 0-.1-.05-.44-.29-.56l-.05-.03h-.06c-1.32.06-2.29.09-3.36.09-.76 0-1.42-.02-2.14-.04-.46-.01-.95-.03-1.51-.04h-.05l-.05.02c-.24.12-.28.46-.29.56-.02.25.06.46.2.55l.05.03.81.06c1.28.1 1.51.36 1.51 3.43v10.44c0 3.02-.06 3.15-1.5 3.41l-.56.1-.05.05c-.17.17-.19.44-.16.63.03.21.13.38.27.45l.05.02h.06c.4-.01.78-.02 1.16-.04.69-.02 1.4-.05 2.2-.05 1.09 0 2.02.03 3.68.09h.06l.05-.02c.19-.09.27-.35.28-.56.01-.25-.06-.45-.2-.54l-.94-.12c-1.39-.15-1.57-.29-1.57-3.4v-4.09q0-.7 1.23-.7h8.3q1.23 0 1.23.7v4.09c0 3.09-.03 3.15-1.58 3.41l-.62.1-.05.05c-.17.17-.19.44-.16.64.04.21.14.38.27.45l.05.03h.06c1.39-.06 2.4-.09 3.5-.09s2.15.03 3.5.09h.06l.05-.02c.24-.12.28-.46.29-.56.02-.25-.06-.45-.2-.55l-.79-.12c-1.47-.18-1.54-.34-1.54-3.41Zm-23.86-15.47.02-.08-.04-.08c-.11-.22-.44-.24-.53-.24-.07 0-.18 0-.27.05l-.07.03-.04.07c-.37.65-.53.7-2.07.7h-11.99c-1.3 0-1.88-.07-2-.72v-.07l-.06-.05c-.08-.08-.21-.12-.4-.12-.07 0-.3 0-.43.09l-.08.05-.02.09c-.2 1.16-.63 2.99-1.09 4.29l-.03.09.04.08c.17.35.77.52 1.09.28l.05-.03.02-.05c.29-.67.57-1.3 1.25-1.93.64-.59 2.09-.67 3.42-.67h1.59q.65 0 .65.7v12.97c0 3.14-.18 3.28-1.59 3.4l-1.04.09-.1.03c-.17.11-.27.32-.26.58 0 .2.09.44.28.53l.05.03h.06c1.78-.06 2.85-.09 4.02-.09s2.07.03 3.79.09h.06l.05-.02c.19-.09.27-.35.28-.56.02-.25-.06-.45-.2-.54l-1.03-.12c-1.45-.12-1.54-.32-1.54-3.4v-13c0-.3 0-.58.05-.62.05-.05.36-.05.57-.05h2.06c1.55 0 2.61.22 3.23.68.27.2.51.94.64 1.96v.06l.05.05c.11.13.3.21.53.21.28 0 .5-.12.6-.31l.03-.06v-.06c-.09-.84.11-3.17.42-4.33Zm-19.76 60.3c0 8.98 4.32 15.32 9.89 19.15 5.08 3.41 11.07 4.66 17.34 4.66 4.46 0 9.47-1.04 11-1.6.77-.28 1.6-.56 2.44-.7 1.04-1.32 2.86-5.92 3.34-9.54-.28-.49-1.32-.63-1.81-.28-1.6 4.11-5.57 9.96-14.55 9.96-11.42 0-20.68-8.08-20.68-22.7s9.05-21.17 19.7-21.17c10.1 0 13.23 5.43 14.27 10.17.49.42 1.53.35 1.88-.14-.56-4.25-.9-8.63-.97-10.24-.63.07-1.11-.07-1.95-.28-3.27-.91-8.56-1.67-12.32-1.67-7.24 0-13.72 1.95-18.8 5.92-5.29 4.11-8.77 10.72-8.77 18.45Zm-18.11-11.74v-48.5c-38.96-3.76-68.37 0-68.37 0v48.51c3.1 32.88 33.9 36.74 34.19 36.68 5.5-.99 31.31-6.18 34.18-36.69m-57.39 12.1c.62.42 1.36.61 2.03.9.83 2.18.02 4.32-.45 3.43-.82-1.56-1.14-2.85-1.58-4.32Zm.04-23.84-.05-.05c-.06 0-4.33 2.69-7.1 1.4 2.07-1.14 9.22-5.69 11.18-6.98.92.2 1.3-.13 1.59-.34-.75.05-3.23.43-1.97-1.78.48 1.99 3.96.16 5.2-.13 3.48-.8 3.45 2.92 3.16 4.45-.11.57 1.07.98 1.64.9-1 2.45-2.7.14-2.9 1.08-.08.38-1.22.68-1.22 1.62 0 1.29.51.58.56 1.58.05.97-.41.21-.31 1.26.17 1.66 2.92-.22 4.05.23.57.23.95.73 1.5.63.16-.13.09-.76.06-.99-.06-.53-1.03-.59-1.49-1.31-.4-.63.45-2.52.91-3.08.66 3.12 3.58 2.14 4.02 5.43.28.93-1.01 1.96.03 3.47-.77.75-1.7 4.3-.08 5.97-.27.76-.63 2.5.8 3.52-.48 1.03-.37 2.29.04 3.57-.9 0-.72-5.02-6.08-5.18-.12-.04-.15.57 0 .84.64 1.13 1.51 1.06 1.32 3.72-.06.91-.6-.16-.88-.41-.65-.57-1.15-.65-1.43-2.52-2.18 1.71-1.97 3.78-1.83 4.83 0 0-.48-1.31-1.03-2.66-.03-.07 2.21-2.77 2.57-3.41 4.53-8.15-2.92 2.63-2.94 2.6-.4-.93-.75-1.73-.99-1.98.06-.11 1.3-1.5 1.86-2.67 3.5-7.29-2.08 2.43-2.28 2.25-.42-.38-.77-.85-1.04-.68-.06 1.12-.33.97-.25 2.11-.58.78-1.84 2-2.71 2.61 0 0-.22-2.02-.16-2.09.44-.54 2.16-2.38 2.51-2.93 5.74-9.01-2.69 2.17-2.7 2.07-.06-.36-.52-.95-1.01-1.45 0 0 1.86-2.53 2.32-3.48 3.49-7.18-2.81 3.18-2.88 3.14-.15-.08-.17-.08-.34-.14-.18-.06.19-2.07.44-3.28.47-2.39-.8-.46-1.14 3.32-.32.05-1.11.13-1.41.4.19 1.01.43.23.86 1.21.51 1.16-.71 3.07.35 4.47.41.54.43.45.35.8-.65-.05-1.05-.06-1.46.5-.8-3.63-.77-5.38-.59-9.07.08-1.68.63-4.21.38-4.26-.24-.05-4.04 9.74-4.96 11.66-1.6-.54 1-9.01 4.3-13.09.31-1.3-1.73 1.32-2.95 2.36-1.12.95-2.54 2.2-4.08 1.77 1.98-2.1 6.53-6.02 7.03-7 .42-.84-3.1 2.61-6.83 1.33 2.41-1.29 8.03-4.16 8.04-6.16Zm6.71 18.42c.01.89-.05 1.55.21 2.46.42 1.37.21.95-.36.48-.46-.51-.88-.93-1.1-1.52-.05-.42.28-.45 1.26-1.42Zm9-22.06c-.54-.93.65-1.81.65-1.81-.04 2.6 3.29.82 5.03 1.64.42.19.71.56.88.95-1.87-1.29-5.33 1.33-6.56-.78M55.52 60.34c-2.97 0-2.91-4.46 0-4.46s2.92 4.46 0 4.46m0 8.91c-3.04 0-3.04-4.45 0-4.45s2.94 4.45 0 4.45m5.64-9.62h-2.59v-2.55h2.59zm0 8.88h-2.59v-2.55h2.59zm20.93 4.39s-2.71-1.47-5.89-1.68c-3.08-.2-9.3 2.25-14.07 1.93V52.17s5.44.72 7.68-.14c7.6-2.93 12.29.34 12.29.34V72.9Zm5.26 3.41c.13.79-.6.99-.6.99 1.14.27 1.69-.41 1.91-.84.44 1.82-1.4 1.93-1.97 2.04 0 0 .93.27.98.87.12 1.54 1.11 1.41 1.33 1.29-.03.19-.34 1.12-1.46.28-.19.19.3.47.4 1.24.13.97.09 1.86 1.21 2.46-.69.54-1.49-.87-1.56-.71-.08.19.95.71-.18 3.39-.52-.3-.23-.24-.83-.96-.46-.38-.64-.47-.26.16.67.84.83 2.75.6 3.27-.55-.24-.41-.68-1.06-1.28-.06.26.2 1.52.87 2.13 1.16 1.05 1.57 2.32 1.6 2.57.09.95-.21 2.21-.32 3.44-.56-.08-1.03-1.66-1.17-1.57-.17.11.07 1.55 1.12 2.53.51 1.49.3 2.29.17 2.34-.18.08-.75-1.52-1.05-1.24 1.5 3.81.45 5.14.05 6.31-.31-1.2-.47-2.1-.85-3.47-.82.64-1.01 1.59-2.01 2.46 0-1.55-.9-5.3-1.61-6.18-.03-.04-1.29 3.36-1.86 4.88-.74 1.96-.86 4.41 0 6.32-1.85-2.63-2.05-7.52-.45-8.18.14-.35-.1-1.5-.45-1.36-.1.56-.03 1.05-.5 1.6-1.22-.36-.67-1.85-.56-2.35 1.59-1.9.6-2.34.52-2.3-.17.44-.32.97-.81 1.17-1.02-1.75-.37-4.5 1.57-6.55.08-.77-.87.57-1.48.52-.16-1.48.37-4.04 3.11-4.13-.52-.15-.8-.25-.93-.68.83-.12 3.42-.32 2.99-2.36-.25.25-.32.61-1 1.02-.45.28-.95.3-1.21-.1 1.2-.4.8-1.86-.76-1.43-.48.13-1.18-.37-1.22-.93.35.35 1.06.09 1.47-.18 1.77-1.15 2.84.51 3.08.87.07 0 .79-1.66-1.71-2.11-.21-.58-.78-1.62-2.48-1.49-.56-1.98-2.26-1-2.2-.11-1.8-1.33.03-3 .76-3.26.5.04.39 1.64 1.28 1.37.21-.06-.69-1.1-.34-1.57.81-.46.79.59 1.19.2.2-.69 1-1.08 1.65-1.16 1.84-.26 3.27 1.76 5.04.77Zm16.57-3.09c-4 .27-12.3-2-14.41-2-4.35 0-6.46 1.7-6.46 1.7V52.45s5.72-2.68 9.88-1.15c5.1 1.88 10.99 1.05 10.99 1.05v20.88Zm5.27-8.07c2.2-.32 2.54 2.28 2.54 2.28-.54-.43-1.63-.63-2.37-.15-2.46 1.59-4.68 1.6-4.68 1.6v-3.97s.47.83 4.52.24Zm2.61-5.44c-.02-.12-.04-.3-.08-.55-.06-.4-1.2-.63-2-.28-1.13.49-3.95 2.11-4.98 1.8v-3.97c2.54 1.1 3.54.11 4.35.11 2.51 0 2.64 2.34 2.64 2.34.03.26.06.44.07.55m-2.84 41.19c-.74.19-2.7.98-3.17 1.74.25-4.24-1.12-8.39-1.55-9.4-.85-1.96.38 4.55.46 6.06 0 .07-7.03-9.04-2.78-2.03 1.1 1.82 2.82 3 2.82 3.03.03 1.26-.06 2.19-.3 2.87-.43.34-9.57-12.17-4.52-3.5.63 1.07 4.29 4.33 4.26 4.39-.23.49-.64 1.21-1.21 1.74-.1-.1-2.11-1.58-2.12-1.67-.15-.97-.16-1.88-1.35-1.19 0 0-4.5-5.24-2.42-1.57.91 1.61 1.51 1.78 1.75 2.07 0 0-.7.95-.92 1.95-.09.4-3.91-4.23-2.41-1.32.48.93 2.22 1.95 2.2 2.02-.18.61-.36 1.19-.55 1.57-.24.48-3.59 3.15-3.58 3.15 0 0 .66-2.12 2.08-3.15.81-.59.81-.46 1.35-.8-.01-.31-.31-.82-.7-.96-.49-.17-2.07.11-2.07.11.15-.79-.55-2.5-.54-4.38-.6.06-1.64.98-1.9 1.51-.18 3.12-.86 2.18-1.49 4.42-.69-.94.05-2.29-.63-3.17-.93-1.21-1.07-2.03-1.21-3.51.22-.12 1.16-1.17.3-3.36-.14-3.45 1.4-4.77-1.36-7.19.23-.07.4-1.8.4-1.81 2.03 1.08 1.63-1.26 2.42-1.71 1.26-.73 1.03-1.49.46-2.43 3.59 1.02-.16 3.48 1.46 3.53 1.18.04 1.97-.26 2.48-1.06.55-.84-.09-1.35 1.43-2.71.15-.14.56-1.04-.65-1.29-.26-.05 0-1.09 0-1.09-.97.82-1.27 1.97-2.83 1.24-.8-.37-1.31 0-1.64.15 0 0-.17-.65.49-.87 1.7-.57 2.12-1.25 2.03-1.62-.23-.89-.3 0-.25-.93.02-.37.45-.87.81-1.3 1.16-1.39 1.97-.87 2.27-.75.67-.52.79-.48 1.41-.73 1.07-.42 3.39.28 4.68.88.63.28 1.38.46 2.11.29 0 .38-.27.58-.54.66-.4.13-.89 0-.85.29.02.17.57.2.92.3 1.92.52 4.4 2.24 2.77 1.88-.19-.04 1.18 1.02 2.21 2.41l3.66 3.56c-.17.2-1.45.02-5.52-3.79-.58.52 4.94 4.68 7.22 9.1-.2.14-3.04-.9-4.06-1.95-1.58-1.63-3.39-5.78-4.14-5.18-.09.03 3 4.85 4.53 7.7.77 1.44 1.4 3.51 1.46 5.07.25 7.69-.91 7.1-.91 7.1-1.8-6.06-2.64-13.09-5.27-16.34-1.05-1.3 2.81 5.68 2.97 11.97Zm-7.96 6.91c-.81.71-1.34.97-1.17.61.2-.39.34-.73.45-1.02.04-.1.71.41.71.41Zm-.54-.96c.18-.65.18-1.09.26-1.66.04-.24.04-.22.05-.42 0-.07 1.76 1.46 1.86 1.52-.44.55-.82.75-1.24 1.14-.3-.26-.96-.52-.94-.58Zm5.71 1.96c-2.44 2.41-6.1 1.54-8.98 2.83-2.61.95-4.51 3.37-7.25 3.98-.81.26-.94.66-.43.65.3 0 1.97 1.74 4.64.39.89-.45 3.66-1.99 4.13-2.08-1.5 1.43-2.25 2.71-3.6 3.46-.82.46-4.16 1.66-7.5 1.01-1.48-.29-2.61 1.08-2.24 1.04.79-.21 1.68-.1 2.21.59.97.76 2.37 1.7 3.58.3.4-.47 2.31-1.46 4.11.36-1.91-.1-1.72 3.34-5.35 2.94-1.34 0-4.31-3.08-5.15-2.13-1.5 1.68 3.22 3.28 1.18 5.4-1.85 1.91-4.05-1.52-4.05-1.52 1.15.48 3.28.79 2.34-1.08-.37-.74-1.08-1.41-1.08-2.79-.16-.68-4.39 5.44-7.18 2.67-1.1-1.09-3.32-3.47-5.34-4.38 5.33-.45 6.15 1.68 6.4 2.02 1.71 2.3 3.28-.04 3.65-.45.56-.63 1.34-1.5 1.06-1.63-2.07-.98-4.43-1.19-6.2-.38 3.78-5.2 6.72-.33 6.72-.33.41.26-.11-3.08-3.84-3.27-2.33-.11-4.39 1.99-6 1.99-1.31 0-5.28-2.68-6.21-5.06 2.31 1.73 5.26 2.72 7.09 1.63 3.45-2.06 7.8 1.05 8.01.67-.97-.75-3.16-3.7-9.09-2.02-2.3 1.32-3.27-.98-4.68-1.02 2.4-2.13 4.07-1.05 4.91-.98.2 0-1-.99-1.84-1.08-6.55-.68-10.7-2.48-10.7-2.48-.03 0 .55-1.32 3.36-.37 0 0-2.53-1.55-2.5-3.53.08-1.22.67-2.54-.26-3.56 3.8-.16 1.1 5.15 3.77 6.51.06.02-.79-1.27.4-2.27.55 1.56 1.91 2.36 2.86 2.61.22-.12.5-.6.5-.6-1-1.66-1.14-3.6-.87-5.81l.04-.02c.22.01.58.76.84 1.31.55 1.19.54 2.91 1.65 4.32.61.78.99 1.56 1.54 1.93.24-.55.06-1.5.02-1.75-.12-.9-.69-2.48.85-3.87.72 2.08 1.7 1.48 1.83 2.47.18 1.4.12 1.17-.02 2.25.07 1.48 1.42 1.89 2.61 2.84 2.69 1.46 4.47 2.25 5.64 4.13.57-3.16-7.96-3.79-6.86-9.89-.11-2.44.3-2.64-1.42-4.13 3.42.1 5.29 5.72 5.47 6.74.34 1.88 1.49 1.98 3.06 4.44.23.08-2.81-6.55.81-12.22 0 0 1.22 2.95.64 4.88-.35 1.16-.03 2.45.04 3.18.07.74-.15-2.69 2.44-4.47.16 1.3 1.41 3.31.23 5.47-1.44 2.62-1.54 1.68-1.56 4.91.13-.06.5-2.22 1.49-3.46 2.08-2.6.59-4 2.63-6.26.16 1.13.45.68.57 1.69.27 2.25-2.08 4.72-1.56 4.64.6-.08 1.56-.61 1.88-2.32 0 0 .87 1.56.07 2.08-1.44.94-1.73 1.96-1.51 3.1 1.15-1.38 2.72-2.9 2.45-4.86.13-1.18 1.41-1.66 1.67-4.41.04-.46.5-1.01.95-1.25-.2 1.54 1 3.14-.36 5.02.31.17 1.46-1.47 3.15-.87-3.38.61-2.39 4.27-4.98 5.97-.78.51-.65 1.09-.88 1.15 2.31-.13 4.1-2.89 4.4-3.1 2.32-1.57 2.83-1.81 3.76-4.36.36-.97.1-1.4 1.39-2.7.57 1.29-.26 3.96-.45 4.54-.42 1.23-1.88 2.29-1.57 2.29 6.23-2.75 6.15-4.6 7.64-6.57.45-.75 2.66-2.06 3.49-2.18-.2.41-1.06 1.1-1.1 1.85-.08 1.38-.52 2.22-1.22 3.32.39.48 1.13-.91 1.89-.21-1.01.33-1.45 1.45-2.24 2.11Zm1.04-.37c-.37 1.82-1 3.5-2.09 5.06-.76 1.11-1.08-1.05-.42-3.13.94-.37 1.87-1.1 2.51-1.93m-4.75-46.05c-.14-.05-.45-.11-.64-.11s-.29.27-.06.34c.15.04.43.09.71.1.18.02.13-.27-.01-.33m-.7.87c.15.04.42.08.7.11.18.02.12-.27-.02-.33-.14-.05-.44-.11-.63-.11-.2 0-.3.26-.06.33Zm0 3.97c-.14-.16-.51-.47-.84-.71-.19.16-.58.44-.84.57-.19-.21-.43-.5-.81-.79-.23.16-.88.75-1.16.91.4.01.99.14 1.02.51.01.3-.02 2.18 0 2.52.24.05.53.03.89 0 .02-.27.01-2.43.02-2.69.12-.07.26-.13.33-.19.14.1.56.58.8.71.17-.13.6-.51.79-.69.2-.2-.02-.33-.19-.17Zm-1.1-3.16c.23-.41.56-1.08.54-1.59-.03-.62-.41-1.55-1.33-1.85-1.16.41-1.88 1.33-1.91 2.41-.02.63.52 1.94 1.63 1.95.34-.33.71-.68 1.07-.92m-.7.25c-.21-.1-1-.71-1.18-1.17-.23-.62-.23-1.31.43-1.72.52.19 1.12.7 1.18 1.17.07.61-.1 1.33-.43 1.72m-.03-4.83.83-.91s-.37-.29-.59-.56c0-.19 0-2.02.08-2.11-.63-.56-1.08-.63-1.36-.59-.51.08-1.03.73-1.19.95-.12.17-.09.39 0 .47.1.08.23.17.37.25-.02-.01-.04-.03-.07-.04-.24.22-.58.87-.57 1.3 0 .44.4 1.08.67 1.31.29-.23.73-.61 1.37-.73.07.31.22.49.46.67Zm-.51-2.1c-.41-.15-1.22-.53-1.51-.77-.08-.06-.09-.1 0-.25.19-.28.4-.52.55-.51.13 0 .95.44.92.67.03.16.03.51.03.86Zm.01 1.24c-.21.01-.4.07-.67.2-.22-.18-.81-.89-.38-1.67-.06-.04-.12-.07-.18-.1.4.22.86.42 1.22.53 0 .31-.01.6-.01.7 0 .13 0 .24.02.35Zm-2.4-3.76c-.2 0-1.52.03-1.55-.05-.1-.28-.12-.63.11-1.1.11-.24-.11-.34-.19-.1-.08.23-.74 1.15-1.43 1.44-.35.14.43.46.38.45 0 .88.12 2.2.31 2.72.12.31.47.83.72.67.16-.1.5-.78.61-.87.19-.16 0-.42-.15-.26-.18.15-.33-.09-.37-.25-.06-.16-.22-2.09-.14-2.13 0 0 1.56-.19 1.71-.19.11 0 .11-.34 0-.34Zm-4.28 3.57.64-.84c-.47-.08-.66-.17-.99-.54v-2.08l-.65-.66-.23.02-1.03.91c-.11.16.17.16.31-.03l.75.43.03 2.01c.06.24.26.47.55.77h.6Zm-.56-4.61.36-.31v-.5l-.49-.47-.48.41v.58l.31.3h.3Zm-1.65-.65c-.28-.03-1.19.04-1.52.1-.33.05-.33.21-.05.24.27.03.33.09.47.45.13.37-.53 2.05-.69 2.45-.19-.29-.89-1.83-.89-2.04 0-.15.31-.3.44-.34.26-.08.25-.26.06-.3-.55-.08-2.48-.25-2.82-.29-.25-.02-.36.26-.06.26.31 0 .63-.08.97.41.39.56 1.61 3.19 1.9 4.29.14-.23 1.36-3.77 1.43-4.14.09-.37.34-.72.7-.83.37-.1.34-.26.06-.28Zm-5.79 8.55c.02 1.47.6 1.6 1.27 1.98.63.36 1.7.29 2.5.08.3-.09.47-.11.46.16 0 .16.23.13.23 0l.01-1.49c0-.15-.22-.13-.22 0 0 .21 0 .27-.2.56-.55.81-1.92.78-2.66-.21-.25-.34-.48-.79-.19-.88s1.17.09 1.76.14c.35.02 1.16.1 1.26.16.09.07.23.15.23-.02v-.91c0-.17-.13-.09-.23-.03-.1.07-.96.21-1.31.27s-1.42.15-1.7.05c-.29-.1-.19-.67.06-1 .75-.99 2.25-.92 2.79-.1.19.28.19.35.19.57 0 .13.22.14.22 0 .01-.14.02-1.63.02-1.75s-.22-.16-.22 0c0 .11-.24.17-.48.11-.47-.15-1.83.06-2.43.4-.54.31-1.37 1.02-1.36 1.91m.26 2.61c.02.42.17 4.02.12 4.52-.03.29.35.59.7.83.17-.21.54-.74.84-.97.18-.15.06-.24-.08-.19-.28.13-.55.03-.58-.29s-.03-3.41 0-3.86c-.21 0-.81-.01-1.01-.03Zm2.97 2.94c-.24.22-.67.81-.66 1.24 0 .44.22.87.47 1.1.44-.3.71-.72 1.44-1 .09.34.33.39.61.6.17-.18.79-.94.92-1.08.14-.13.06-.26-.14-.13-.19.13-.33.05-.65-.3.01-.19-.02-1.74.05-1.82-.3-.32-.57-.75-.92-.72-.51.04-1.16.93-1.32 1.16-.13.17 0 .8.1.88.03.03.05.03.08.06Zm.36.26c.28.16.43.06.87.01 0 .28 0 .53-.01.66-.19.14-.43.26-.71.4-.22-.18-.54-.33-.15-1.07m-.24-1.27c.19-.28.3-.34.45-.34.13 0 .65.36.62.6.03.16.03.48.03.81-.39.05-.66.09-1.09-.27-.08-.06-.1-.65-.01-.8m3.12-.57c-.33.16.44.47.39.45-.01.87-.19 2.3.11 2.75.18.28.61.46.89.35.27-.11.62-.65.72-.74.2-.15.03-.31-.14-.16-.17.16-.62.04-.68-.11-.05-.16-.1-2.06-.03-2.1 0 0 .54-.01.69 0 .11 0 .12-.34.01-.34-.2 0-.63-.04-.66-.12-.06-.18.02-.76.13-.99.12-.24-.11-.34-.19-.11-.09.25-.66.85-1.24 1.13Zm.16-3.96c.03.82-.39 1.69-.86 2.08.81-.21.91-.69 1.35-1.26.24.36.7.8 1.03.98.23-.15.89-.89 1.04-1.05-.48-.13-1.39-.61-1.62-1.13-.18-.38-.14-.56.04-.86.16.21 1.28.72 1.78-.13-.55-.2-1.04-.56-1.21-.85-.15.12-.64.66-.91.83-.06-.29-.52-.61-.88-.68-.12.13-.98.78-1.37.98-.12.06-.08.32.09.25.16-.07.43-.27.73-.42.36.14.76.5.8 1.25Zm3.86.13c.1-.5.45-.7.61-.85.23.25.46.54.8.54.33 0 .68-.15.79-.29-.28-.22-.9-.88-1.03-1.01-.32.18-1.7.89-1.82 1.72-.17 1.22.22 1.47.76 2.14.3.38.81.4 1.04.34.25-.17 1.15-1.03 1.25-1.14.09-.1-.04-.2-.15-.09-.11.1-.07.15-.22.17s-.77.13-1.13-.06c-.45-.24-1.03-.79-.9-1.46Zm-.68 3.91c-.2.21-.56.45-.89.82.28.02.51.08.64.34.14.26.02 1.37.04 1.8.02.42.27.5.6.85.33-.08 1.24-.47 1.55-.68-.03.34.4.72.66.8.17-.19.36-.29.61-.52-.24-.16-.21-.19-.3-.51-.07-.31.02-1.5.03-2.01-.19-.29-.51-.65-.84-.89-.23.21-.54.49-.9.87.27-.04.8.07.83.3.02.29.06.94 0 1.44s-1.41.27-1.43-.07c-.03-.35.07-1.35.08-1.82-.19-.29-.3-.46-.66-.72Zm-8.98 12.17v-.05c-.78-.11-1.4-.66-2.11-.93-.99-.37-2.04.39-2.04.51 0 .27.28.4 1.08-.1-.63.73.08 1.32.08 1.32-.26-.04-.63-.13-.87-.26-.05.26.31.36.49.47 1.33.55 2.2-.73 3.37-.96m-2.24.67s.35-.38.35-.65c0-.37-.35-.64-.35-.64.3.09 1.01.49 1.27.66l-1.27.64Zm-7.28-10.07.38-.42c-.43-.08-.23-.08-.46-.28V66.1l-.57-.82-.21.03-.87.82c-.23.2-.03.3.24.08l.58.3v1.85c.06.23.27.28.55.57l.36-.37Zm.19-6.07c.3.84.99 1.1 1.51 1.14.15-.29.44-.72.6-.93.23-.31 0-.5-.17-.14-.13.27-.8-.03-1.04-.26-.33-.3-.53-1.1-.27-1.38s.64-.15 1.13-.17c.32-.02.39-.31.44-.46-.15-.07-.39-.2-.69-.39-.31.2-.8.61-1.01.78-.26.22-.8.98-.5 1.8Zm1.26 4.61c-.32.33-.55.69-.55 1.14.02.43.16.86.6 1.05.39-.29.89-.63 1.37-.72.24.28.6.47.82.64.15-.18.63-.57.76-.69.13-.13 0-.31-.13-.14-.1.16-.44.04-.54-.12 0-.18-.18-2.12-.1-2.21-.28-.31-.76-1.02-1.09-.98-.47.05-1.18.72-1.33.94-.11.17.03.96.13 1.04.02.02.04.02.06.05m1.24.17c-.36 0-.66-.1-1.05-.44-.07-.06-.14-.5-.06-.65.17-.27.17-.36.32-.35.12 0 .83.43.8.66.03.17.01.48 0 .78Zm-.94.06c.33.22.51.19.93.15-.02.22-.03.43-.03.52 0 .1.04.18.07.26-.21.08-.48.12-.69.23-.19-.17-.89-.64-.27-1.16Zm2.69-3.6.39-.42c-.44-.08-.44-.05-.67-.26l.02-2.02-.38-.56-.2.03-.88.81c-.24.21-.02.31.24.08l.45.28.02 1.9c.05.23.25.31.53.59l.49-.42Zm-.69-7.07c-.18-.01-.45.32.6.43.16.02.38-.37-.6-.43m.01-.63c-.17-.01-.45.47.61.43.16 0 .29-.38-.61-.43m.21 3.18-.45-.47-.46.41v.56l.29.29h.28l.34-.31zm-.92-4.33c-.31-.21-.64-.72-1.38-.76-.75-.03-1.59.64-1.86 1.07-.36.56.08 1.05.56 1.41-.3.26-.72.66-1.11 1.02.16.17 1.01.57 1.49.56.72-.02 1.39-.39 1.81-.72.75-.6.49-1.23-.27-1.68a.6.6 0 0 0-.22-.07c.48-.38.89-.71 1-.85Zm-1.91 1.56c.25.11.51.23.79.39.4.23.2.66-.24.86s-1.23-.37-1.36-.6c.16-.14.47-.38.81-.65m.8-1.06c-.07.05-.26.21-.46.37-.12.02-.24.03-.37.02-.38-.05-.56-.34-.74-.57-.18-.24.29-.44.51-.42.23.03.75.31 1.05.59Zm-3.11 1.64c-1.11.28-1.63-.61-1.74-.85.45-.46 1.21-1.21 1.67-1.59-.31-.28-.43-.75-.98-.79-.48.01-1.58.55-1.78 1.96-.19 1.35 1.08 2.08 2.09 2.12.33 0 .75-.43.96-.54.45-.22.28-.43-.23-.32Zm-1.82-1.11c-.28-.9-.17-1.21.38-1.65.13.31.45.53.62.64-.32.31-.81.86-1.01 1.01Zm-1.28-.81c.19-.19-.01-.32-.18-.16-.13-.15-.45-.48-.62-.68-.18.15-.6.4-.83.53-.18-.21-.41-.21-.77-.49-.2.15-.65.48-.89.77.42.12.74.15.77.51.02.3-.03 2.12 0 2.45.23.05.5.03.83.01.03-.26.01-2.55.01-2.8.12-.07.25-.14.31-.19.13.1.4.49.61.61.16-.12.58-.39.77-.57Zm-3.5 4.73c-.48.04-1.18.61-1.38 1.09-.08.19.03.89.12.97.06.06.11.09.17.14-.32.29-.61.54-.6.98.01.42.35.79.78.99.23-.35.59-.57.98-.66.03.34.11.58.33.75.16-.18.79-.72.91-.85.13-.13.03-.28-.12-.13-.09.09-.32-.04-.39-.15 0-.18 0-2.12.08-2.21-.29-.31-.56-.96-.88-.93Zm.04 1.96c-.54.35-.71.34-1.08-.08-.18-.21-.17-.61-.08-.77.17-.26.46-.53.6-.52.12 0 .55.53.52.76.02.13.03.36.04.61m0 .97v.29c-.1.03-.22.05-.37.12-.2-.17-1.13-.47-.52-.97.37.22.52.05.88-.18v.73Zm-.42-4.1c-.07-.08-.19-.22-.2-.39l.01-1.42c0-.14-.28-.12-.28 0-.01.21.02.56-.17.85-.51.79-1.49 1.12-2.17.15-.23-.32-.29-.81-.32-1.16-.05-.47.31-1.07.33-1.12.87-1.14 2.08-.29 2.18.17.06.31.13.69.13.89 0 .13.28.12.28-.02v-2.02c0-.11-.23-.15-.24 0-.01.28-.18.3-.39.23-.44-.13-1.42-.34-1.99-.01-.5.29-1.27.98-1.25 1.85.02 1.43.55 1.55 1.18 1.93.59.34 1.39.12 2.13-.09.29-.08.33.11.47.31.24.32.43.12.26-.14Zm-3.95 2.02c-.49.76-.76 1.95.09 2.64.4.34.74.6 1.56.45.16-.33.24-.43.52-.81-.57.09-1-.01-1.42-.32-.85-.66-.59-1.72-.34-2.09.46-.68 1.11.29 1.23.43.15-.18.41-.44.67-.64-.25-.34-.46-.65-.63-.85-.54.2-1.34.68-1.69 1.19Zm.35 6.53c-.18 1.36 1.1 2.17 1.71 2.43.16-.31.47-.82.78-1.17.23-.27-.02-.35-.23-.14-.28.31-1.13.02-1.35-.39.41-.31 1.47-1.2 1.94-1.58-.31-.29-.78-1-.85-1.41-.41.28-1.78.85-1.99 2.26Zm1.32-1.47c.12.31.52.91.69 1.02-.31.31-1.06.82-1.27.96-.38-.48-.59-1.27.57-1.98Zm2.8-.5c-.27.25-.47.48-.86.79.18.21.49.47.51.83s0 2.03.03 2.45c.28 0 .23.03.72.01-.05-.28 0-2.45 0-2.76.18-.17.21-.2.42-.36.15.13.5.21.5.44s.07 1.26-.01 1.64c-.1.46-.06.8.19 1.27.19-.21.9-.71 1.05-.83.15-.13.07-.23-.12-.18-.21.05-.25.09-.25-.05 0-.25-.1-1.38-.11-2.1-.03-.72-.38-.94-.58-1.04-.21.23-.67.52-.95.76-.21-.15-.31-.5-.54-.86Zm2.91-1.75c.24-.19.42-.52.52-.6.19-.15.03-.31-.13-.16-.13.12-.46-.16-.47-.18-.11-.13-.27-1.78-.19-1.82 0 0 1.05-.13 1.19-.13.1 0 .12-.33 0-.33-.17 0-.97.11-1 .03-.04-.18-.15-.76.11-1.27.12-.22 0-.43-.09-.21-.09.23-.75 1.25-1.18 1.42-.35.14-.31.22-.09.28.18.03.36.25.33.24-.04.85-.12 1.9.15 2.34.17.28.63.57.84.39Zm3.62.38c-.13.26-.34.49-.72.67.23.2.54.46.74.6.23-.26.44-.49.71-.74-.26-.05-.57-.18-.72-.52Zm-1.66-.94c.33-.03.87.17 1.47.12.71-.05 1.27-1.15.96-2.01-.29-.81-1.19-.67-1.8-.86-.56-.15-.79-.51-.18-.91.72-.46 1.61.28 1.7.44.13.24.24.23.24-.08.02-.67-.04-.29-.11-.93-.02-.23-.19-.25-.2-.03s-.28.15-.49.15-.81-.1-1.33.19c-.33.19-1.09.78-.66 1.49.25.41 1.7.75 2.06.99s.44.85.1 1.12c-.43.34-1.6.05-1.79-.15-.24-.26-.33-.48-.38-.78-.05-.31-.31-.29-.31 0s.07 1.26.12 1.49c.05.24.28.16.31-.02.03-.17.14-.22.29-.23Zm-1.52 3.04c-.28.21.33.5.27.48.02.85-.1 1.73.19 2.16.18.27.75.47.85.21s.53-.79.63-.88c.18-.16.02-.3-.13-.15-.31.33-.49.18-.72-.04-.11-.13-.15-1.32-.07-1.35 0 0 .58-.08.71-.08.11 0 .1-.33-.01-.33-.17 0-.69 0-.72-.08-.06-.16.1-.97.13-1.33.02-.25-.11-.33-.18-.1s-.62 1.25-.95 1.49"/></svg>