<?xml version="1.0" encoding="UTF-8"?>
<svg xmlns="http://www.w3.org/2000/svg" version="1.1" viewBox="0 0 1046.2 179.28">
  <defs>
    <style>
      .cls-1 {
        fill: #fff;
      }
    </style>
  </defs>
  <!-- Generator: Adobe Illustrator 28.7.1, SVG Export Plug-In . SVG Version: 1.2.0 Build 142)  -->
  <g>
    <g id="tertiary">
      <g>
        <path class="cls-1" d="M533.27,98.27c1.95,1.86,2.93,4.19,2.93,6.99s-.98,5.14-2.93,7.01c-1.95,1.88-4.45,2.81-7.49,2.81h-7.31v-19.6h7.31c3.04,0,5.54.93,7.49,2.79ZM532.58,105.32c0-1.96-.62-3.57-1.88-4.82-1.25-1.25-2.89-1.88-4.93-1.88h-3.86v13.33h3.86c2.03,0,3.68-.62,4.93-1.86s1.88-2.83,1.88-4.77Z"/>
        <path class="cls-1" d="M544.22,98.04h-3.64v-3.22h3.64v3.22ZM544.11,115.09h-3.39v-14.78h3.39v14.78Z"/>
        <path class="cls-1" d="M555.11,111.17l4-10.86h3.56l-6.05,14.9h-3.05l-6.08-14.9h3.64l3.98,10.86Z"/>
        <path class="cls-1" d="M569.57,98.04h-3.64v-3.22h3.64v3.22ZM569.46,115.09h-3.39v-14.78h3.39v14.78Z"/>
        <path class="cls-1" d="M584.93,110.72c0,1.49-.51,2.64-1.54,3.44s-2.34,1.2-3.95,1.2c-2.32,0-4.41-.74-6.27-2.21l1.51-2.3c1.61,1.21,3.22,1.82,4.84,1.82.73,0,1.29-.14,1.69-.43.4-.29.6-.68.6-1.16v-.06c0-.62-.54-1.13-1.62-1.54-.22-.07-.78-.25-1.68-.53-.67-.19-1.23-.37-1.68-.56s-.92-.44-1.43-.77c-.5-.33-.88-.74-1.13-1.25s-.38-1.09-.38-1.76v-.06c0-1.36.5-2.45,1.5-3.28,1-.82,2.25-1.23,3.77-1.23,1.92,0,3.73.56,5.43,1.68l-1.34,2.41c-1.53-.93-2.92-1.4-4.17-1.4-.65,0-1.16.14-1.53.41-.36.27-.55.63-.55,1.08v.06c0,.45.25.81.74,1.08.49.27,1.26.57,2.31.91.13.04.22.07.28.08.65.21,1.2.41,1.65.6.45.2.92.46,1.41.8.49.34.87.75,1.13,1.23.26.49.39,1.05.39,1.68v.06Z"/>
        <path class="cls-1" d="M592.48,98.04h-3.64v-3.22h3.64v3.22ZM592.37,115.09h-3.39v-14.78h3.39v14.78Z"/>
        <path class="cls-1" d="M609.89,102.24c1.5,1.49,2.25,3.31,2.25,5.46s-.76,3.97-2.27,5.47c-1.51,1.5-3.4,2.25-5.66,2.25s-4.11-.75-5.6-2.24c-1.49-1.49-2.24-3.3-2.24-5.43s.76-3.98,2.27-5.49,3.39-2.27,5.63-2.27,4.11.75,5.61,2.24ZM607.53,111.13c.82-.91,1.23-2.03,1.23-3.37s-.43-2.48-1.29-3.4c-.86-.92-1.94-1.39-3.25-1.39s-2.4.45-3.22,1.36c-.82.91-1.23,2.03-1.23,3.37s.42,2.48,1.27,3.4,1.93,1.39,3.23,1.39,2.43-.45,3.25-1.36Z"/>
        <path class="cls-1" d="M619.52,106.74v8.34h-3.39v-14.78h3.39v2.3c1.18-1.74,2.72-2.6,4.62-2.6,1.64,0,2.93.51,3.86,1.54.93,1.03,1.4,2.41,1.4,4.14v9.41h-3.39v-8.4c0-1.16-.28-2.05-.83-2.67-.55-.62-1.33-.94-2.34-.94s-1.79.33-2.41.98c-.62.65-.92,1.55-.92,2.69Z"/>
        <path class="cls-1" d="M655.99,102.24c1.5,1.49,2.25,3.31,2.25,5.46s-.76,3.97-2.27,5.47c-1.51,1.5-3.4,2.25-5.66,2.25s-4.11-.75-5.6-2.24c-1.49-1.49-2.24-3.3-2.24-5.43s.76-3.98,2.27-5.49,3.39-2.27,5.63-2.27,4.11.75,5.61,2.24ZM653.62,111.13c.82-.91,1.23-2.03,1.23-3.37s-.43-2.48-1.29-3.4c-.86-.92-1.94-1.39-3.25-1.39s-2.4.45-3.22,1.36c-.82.91-1.23,2.03-1.23,3.37s.42,2.48,1.27,3.4,1.93,1.39,3.23,1.39,2.43-.45,3.25-1.36Z"/>
        <path class="cls-1" d="M666.01,100.42h3.92v2.8h-3.86v11.87h-3.39v-11.87h-1.88v-2.83h1.88v-1.06c0-3.23,1.51-4.84,4.54-4.84.95,0,1.87.13,2.74.39v2.86c-.73-.24-1.39-.36-1.99-.36-1.31,0-1.96.75-1.96,2.24v.81Z"/>
        <path class="cls-1" d="M686.34,103.22v7.25c0,1.23.61,1.85,1.82,1.85.73,0,1.43-.17,2.1-.5v2.77c-.9.5-1.91.76-3.05.76-2.84,0-4.26-1.45-4.26-4.34v-7.78h-1.88v-2.91h1.88v-4.06h3.39v4.06h3.98v2.91h-3.98Z"/>
        <path class="cls-1" d="M697.59,106.74v8.34h-3.39v-20.44h3.39v7.95c1.18-1.74,2.72-2.6,4.62-2.6,1.64,0,2.93.51,3.86,1.54.93,1.03,1.4,2.41,1.4,4.14v9.41h-3.39v-8.4c0-1.16-.28-2.05-.83-2.67-.55-.62-1.33-.94-2.34-.94s-1.79.33-2.41.98c-.62.65-.92,1.55-.92,2.69Z"/>
        <path class="cls-1" d="M714.71,108.9c.19,1.18.66,2.1,1.43,2.76.77.66,1.71.99,2.83.99,1.46,0,2.79-.59,4-1.76l1.99,1.76c-1.53,1.85-3.55,2.77-6.05,2.77-2.17,0-3.97-.72-5.42-2.16-1.45-1.44-2.17-3.29-2.17-5.54s.68-3.99,2.04-5.49c1.36-1.49,3.09-2.24,5.18-2.24,2.26,0,4,.76,5.24,2.28,1.23,1.52,1.85,3.42,1.85,5.7,0,.17-.02.48-.06.92h-10.86ZM714.68,106.66h7.59c-.11-1.14-.49-2.07-1.15-2.8-.65-.73-1.52-1.09-2.6-1.09-1.03,0-1.89.36-2.58,1.08s-1.11,1.66-1.26,2.81Z"/>
        <path class="cls-1" d="M749.38,95.35l8.62,19.74h-3.64l-1.99-4.73h-9.27l-2.02,4.73h-3.53l8.62-19.74h3.19ZM751.11,107.3l-3.39-7.84-3.36,7.84h6.75Z"/>
        <path class="cls-1" d="M764.91,109.46v5.63h-3.39v-14.78h3.39v3.33c1.05-2.52,2.79-3.72,5.24-3.61v3.58h-.2c-1.53,0-2.75.5-3.67,1.5-.91,1-1.37,2.45-1.37,4.35Z"/>
        <path class="cls-1" d="M778.17,103.22v7.25c0,1.23.61,1.85,1.82,1.85.73,0,1.43-.17,2.1-.5v2.77c-.9.5-1.91.76-3.05.76-2.84,0-4.26-1.45-4.26-4.34v-7.78h-1.88v-2.91h1.88v-4.06h3.39v4.06h3.98v2.91h-3.98Z"/>
        <path class="cls-1" d="M796.86,110.72c0,1.49-.51,2.64-1.54,3.44s-2.34,1.2-3.95,1.2c-2.32,0-4.41-.74-6.27-2.21l1.51-2.3c1.61,1.21,3.22,1.82,4.84,1.82.73,0,1.29-.14,1.69-.43.4-.29.6-.68.6-1.16v-.06c0-.62-.54-1.13-1.62-1.54-.22-.07-.78-.25-1.68-.53-.67-.19-1.23-.37-1.68-.56s-.92-.44-1.43-.77c-.5-.33-.88-.74-1.13-1.25s-.38-1.09-.38-1.76v-.06c0-1.36.5-2.45,1.5-3.28,1-.82,2.25-1.23,3.77-1.23,1.92,0,3.73.56,5.43,1.68l-1.34,2.41c-1.53-.93-2.92-1.4-4.17-1.4-.65,0-1.16.14-1.53.41-.36.27-.55.63-.55,1.08v.06c0,.45.25.81.74,1.08.49.27,1.26.57,2.31.91.13.04.22.07.28.08.65.21,1.2.41,1.65.6.45.2.92.46,1.41.8.49.34.87.75,1.13,1.23.26.49.39,1.05.39,1.68v.06Z"/>
        <path class="cls-1" d="M826.62,113.66l-2.55,1.82-2.6-2.66c-1.83,1.7-3.84,2.55-6.02,2.55-1.85,0-3.37-.51-4.58-1.54-1.2-1.03-1.81-2.39-1.81-4.09,0-2.48,1.39-4.32,4.17-5.52-1.08-1.4-1.62-2.77-1.62-4.12s.51-2.55,1.54-3.51c1.03-.96,2.39-1.44,4.09-1.44,1.53,0,2.78.45,3.75,1.36s1.46,2.04,1.46,3.4c0,2.33-1.44,4.04-4.31,5.12l3.36,3.42c.71-1.06,1.41-2.32,2.1-3.78l2.6,1.37c-.9,1.79-1.78,3.29-2.66,4.48l3.08,3.14ZM819.51,110.8l-4.37-4.45c-1.74.75-2.6,1.84-2.6,3.28,0,.84.31,1.53.92,2.07.62.54,1.4.81,2.35.81,1.27,0,2.5-.57,3.7-1.71ZM819.4,100.11c0-.67-.21-1.21-.62-1.62s-.95-.62-1.62-.62-1.25.22-1.68.66c-.43.44-.64,1.01-.64,1.72,0,.88.49,1.86,1.48,2.94,1.05-.37,1.82-.8,2.32-1.29.5-.49.76-1.08.76-1.79Z"/>
        <path class="cls-1" d="M852.58,106.83h-9.35v8.26h-3.44v-19.6h3.44v8.15h9.35v-8.15h3.44v19.6h-3.44v-8.26Z"/>
        <path class="cls-1" d="M871.13,108.65v-8.34h3.39v14.78h-3.39v-2.3c-1.18,1.74-2.72,2.6-4.62,2.6-1.64,0-2.93-.51-3.86-1.54-.93-1.03-1.4-2.41-1.4-4.14v-9.41h3.39v8.4c0,1.16.28,2.05.83,2.67s1.33.94,2.34.94,1.79-.33,2.41-.98.92-1.55.92-2.69Z"/>
        <path class="cls-1" d="M891.61,102.6c1.33-1.74,3-2.6,5.01-2.6,1.62,0,2.89.49,3.81,1.48.91.99,1.37,2.38,1.37,4.17v9.44h-3.39v-8.4c0-1.18-.26-2.07-.78-2.69-.52-.62-1.26-.92-2.21-.92s-1.72.32-2.3.97c-.58.64-.87,1.54-.87,2.7v8.34h-3.39v-8.43c0-1.14-.26-2.02-.78-2.65-.52-.62-1.26-.94-2.21-.94s-1.72.33-2.3.99c-.58.66-.87,1.56-.87,2.7v8.32h-3.39v-14.78h3.39v2.24c1.23-1.7,2.73-2.55,4.51-2.55,2.05,0,3.52.87,4.4,2.6Z"/>
        <path class="cls-1" d="M918.95,115.09h-3.36v-1.82c-1.19,1.42-2.79,2.13-4.79,2.13-1.47,0-2.72-.41-3.74-1.22-1.02-.81-1.53-1.93-1.53-3.35v-.06c0-1.55.55-2.73,1.65-3.54,1.1-.81,2.55-1.22,4.34-1.22,1.44,0,2.8.21,4.09.62v-.36c0-1.03-.31-1.81-.94-2.35-.62-.54-1.53-.81-2.7-.81-1.34,0-2.75.31-4.23.92l-.92-2.72c1.83-.82,3.71-1.23,5.63-1.23,2.15,0,3.77.54,4.86,1.62,1.09,1.08,1.64,2.62,1.64,4.62v8.76ZM915.67,109.74v-.92c-1.01-.39-2.14-.59-3.39-.59-1.06,0-1.89.21-2.49.63s-.9,1-.9,1.75v.06c0,.67.27,1.2.81,1.6.54.39,1.22.59,2.04.59,1.14,0,2.08-.29,2.81-.87.74-.58,1.11-1.33,1.11-2.24Z"/>
        <path class="cls-1" d="M927,106.74v8.34h-3.39v-14.78h3.39v2.3c1.18-1.74,2.72-2.6,4.62-2.6,1.64,0,2.93.51,3.86,1.54.93,1.03,1.4,2.41,1.4,4.14v9.41h-3.39v-8.4c0-1.16-.28-2.05-.83-2.67-.55-.62-1.33-.94-2.34-.94s-1.79.33-2.41.98c-.62.65-.92,1.55-.92,2.69Z"/>
        <path class="cls-1" d="M945.15,98.04h-3.64v-3.22h3.64v3.22ZM945.04,115.09h-3.39v-14.78h3.39v14.78Z"/>
        <path class="cls-1" d="M953.9,103.22v7.25c0,1.23.61,1.85,1.82,1.85.73,0,1.43-.17,2.1-.5v2.77c-.9.5-1.91.76-3.05.76-2.84,0-4.26-1.45-4.26-4.34v-7.78h-1.88v-2.91h1.88v-4.06h3.39v4.06h3.98v2.91h-3.98Z"/>
        <path class="cls-1" d="M965.32,98.04h-3.64v-3.22h3.64v3.22ZM965.2,115.09h-3.39v-14.78h3.39v14.78Z"/>
        <path class="cls-1" d="M972.67,108.9c.19,1.18.66,2.1,1.43,2.76.77.66,1.71.99,2.83.99,1.46,0,2.79-.59,4-1.76l1.99,1.76c-1.53,1.85-3.55,2.77-6.05,2.77-2.17,0-3.97-.72-5.42-2.16-1.45-1.44-2.17-3.29-2.17-5.54s.68-3.99,2.04-5.49c1.36-1.49,3.09-2.24,5.18-2.24,2.26,0,4,.76,5.24,2.28,1.23,1.52,1.85,3.42,1.85,5.7,0,.17-.02.48-.06.92h-10.86ZM972.64,106.66h7.59c-.11-1.14-.49-2.07-1.15-2.8-.65-.73-1.52-1.09-2.6-1.09-1.03,0-1.89.36-2.58,1.08s-1.11,1.66-1.26,2.81Z"/>
        <path class="cls-1" d="M998.02,110.72c0,1.49-.51,2.64-1.54,3.44s-2.34,1.2-3.95,1.2c-2.32,0-4.41-.74-6.27-2.21l1.51-2.3c1.61,1.21,3.22,1.82,4.84,1.82.73,0,1.29-.14,1.69-.43.4-.29.6-.68.6-1.16v-.06c0-.62-.54-1.13-1.62-1.54-.22-.07-.78-.25-1.68-.53-.67-.19-1.23-.37-1.68-.56s-.92-.44-1.43-.77c-.5-.33-.88-.74-1.13-1.25s-.38-1.09-.38-1.76v-.06c0-1.36.5-2.45,1.5-3.28,1-.82,2.25-1.23,3.77-1.23,1.92,0,3.73.56,5.43,1.68l-1.34,2.41c-1.53-.93-2.92-1.4-4.17-1.4-.65,0-1.16.14-1.53.41-.36.27-.55.63-.55,1.08v.06c0,.45.25.81.74,1.08.49.27,1.26.57,2.31.91.13.04.22.07.28.08.65.21,1.2.41,1.65.6.45.2.92.46,1.41.8.49.34.87.75,1.13,1.23.26.49.39,1.05.39,1.68v.06Z"/>
      </g>
    </g>
    <g id="secondary">
      <g>
        <path class="cls-1" d="M540.74,76.19c0,3.4-1.18,6.23-3.55,8.5-2.37,2.27-5.4,3.4-9.1,3.4h-9.28v-23.8h9.28c3.69,0,6.73,1.13,9.1,3.38,2.37,2.26,3.55,5.07,3.55,8.45v.07ZM535.26,76.26v-.07c0-2.11-.66-3.83-1.99-5.17-1.33-1.34-3.05-2.01-5.19-2.01h-4.05v14.35h4.05c2.13,0,3.86-.66,5.19-1.97s1.99-3.03,1.99-5.13Z"/>
        <path class="cls-1" d="M563.92,88.09h-18.12v-23.8h17.95v4.66h-12.75v4.83h11.22v4.66h-11.22v5h12.92v4.66Z"/>
        <path class="cls-1" d="M588.2,72.59c0,2.65-.91,4.71-2.72,6.17s-4.11,2.19-6.9,2.19h-3.98v7.14h-5.24v-23.8h9.72c2.81,0,5.03.75,6.66,2.26s2.45,3.5,2.45,5.97v.07ZM582.89,72.69v-.07c0-1.16-.37-2.04-1.12-2.67-.75-.62-1.79-.93-3.13-.93h-4.05v7.28h4.15c1.27,0,2.28-.34,3.03-1.02s1.12-1.54,1.12-2.58Z"/>
        <path class="cls-1" d="M613.82,88.09h-5.47l-2.18-5.34h-10.06l-2.18,5.34h-5.34l10.2-23.97h4.83l10.2,23.97ZM604.3,78.13l-3.16-7.72-3.16,7.72h6.32Z"/>
        <path class="cls-1" d="M638.27,88.09h-6.12l-5.1-7.62h-4.11v7.62h-5.24v-23.8h10.88c2.81,0,5.01.7,6.6,2.09,1.59,1.39,2.38,3.31,2.38,5.76v.07c0,3.65-1.7,6.11-5.1,7.38l5.81,8.5ZM632.25,72.49v-.07c0-1.11-.36-1.96-1.09-2.53-.73-.58-1.73-.87-3.03-.87h-5.2v6.83h5.3c1.25,0,2.23-.31,2.94-.92s1.07-1.43,1.07-2.45Z"/>
        <path class="cls-1" d="M660.69,69.12h-7.24v18.97h-5.24v-18.97h-7.24v-4.83h19.72v4.83Z"/>
        <path class="cls-1" d="M688.51,88.09h-5.2v-15.54l-6.7,10.17h-.14l-6.63-10.06v15.44h-5.13v-23.8h5.64l6.26,10.06,6.26-10.06h5.64v23.8Z"/>
        <path class="cls-1" d="M712.98,88.09h-18.12v-23.8h17.95v4.66h-12.75v4.83h11.22v4.66h-11.22v5h12.92v4.66Z"/>
        <path class="cls-1" d="M739.57,88.09h-4.45l-11.53-15.13v15.13h-5.17v-23.8h4.83l11.15,14.65v-14.65h5.17v23.8Z"/>
        <path class="cls-1" d="M763.31,69.12h-7.24v18.97h-5.24v-18.97h-7.24v-4.83h19.72v4.83Z"/>
        <path class="cls-1" d="M802.78,76.19c0,3.42-1.21,6.33-3.62,8.72-2.41,2.39-5.43,3.59-9.06,3.59s-6.64-1.18-9.03-3.55c-2.39-2.37-3.59-5.26-3.59-8.69v-.07c0-3.42,1.21-6.33,3.62-8.72s5.43-3.59,9.06-3.59,6.63,1.18,9.03,3.55c2.39,2.37,3.59,5.26,3.59,8.69v.07ZM797.31,76.26v-.07c0-2.08-.68-3.85-2.04-5.3-1.36-1.45-3.08-2.18-5.17-2.18s-3.8.71-5.13,2.14c-1.34,1.43-2.01,3.18-2.01,5.27v.07c0,2.09.68,3.85,2.04,5.3,1.36,1.45,3.08,2.18,5.17,2.18s3.8-.71,5.13-2.14c1.34-1.43,2.01-3.18,2.01-5.27Z"/>
        <path class="cls-1" d="M825.96,69.05h-12.89v5.07h11.36v4.76h-11.36v9.21h-5.24v-23.8h18.12v4.76Z"/>
        <path class="cls-1" d="M865.17,88.09h-5.2v-15.54l-6.7,10.17h-.14l-6.63-10.06v15.44h-5.13v-23.8h5.64l6.26,10.06,6.26-10.06h5.64v23.8Z"/>
        <path class="cls-1" d="M891.98,77.72c0,3.54-.92,6.21-2.77,8.02-1.85,1.81-4.4,2.72-7.67,2.72s-5.77-.9-7.58-2.7-2.72-4.43-2.72-7.87v-13.6h5.24v13.46c0,1.9.45,3.36,1.34,4.37s2.16,1.51,3.79,1.51,2.9-.49,3.79-1.46,1.34-2.39,1.34-4.25v-13.63h5.24v13.43Z"/>
        <path class="cls-1" d="M914.9,81.06c0,2.31-.8,4.12-2.4,5.42-1.6,1.3-3.71,1.96-6.34,1.96-3.9,0-7.26-1.27-10.1-3.81l3.09-3.71c2.33,1.93,4.7,2.89,7.11,2.89,1.07,0,1.9-.2,2.52-.59.61-.4.92-.95.92-1.65v-.07c0-.68-.32-1.23-.95-1.65-.63-.42-1.92-.88-3.84-1.38-1.36-.34-2.46-.67-3.3-1s-1.64-.77-2.4-1.31c-.76-.54-1.32-1.22-1.67-2.02-.35-.8-.53-1.79-.53-2.94v-.07c0-2.15.78-3.89,2.33-5.2s3.55-1.97,6-1.97c3.38,0,6.32,1.01,8.84,3.03l-2.72,3.94c-2.24-1.56-4.31-2.35-6.19-2.35-.98,0-1.73.19-2.26.58-.53.39-.8.88-.8,1.5v.07c0,.77.33,1.35.99,1.73.66.39,2.04.85,4.15,1.39,2.58.68,4.49,1.55,5.71,2.6,1.22,1.05,1.84,2.57,1.84,4.54v.07Z"/>
        <path class="cls-1" d="M925.32,88.09h-5.24v-23.8h5.24v23.8Z"/>
        <path class="cls-1" d="M952.56,84.25c-1.31,1.41-2.73,2.46-4.23,3.18-1.51.71-3.35,1.07-5.53,1.07-3.49,0-6.4-1.18-8.72-3.54-2.32-2.36-3.49-5.26-3.49-8.7v-.07c0-3.45,1.17-6.36,3.5-8.74,2.33-2.38,5.3-3.57,8.91-3.57,2.11,0,3.9.31,5.37.93,1.47.62,2.81,1.54,4.01,2.74l-3.33,3.84c-1.97-1.79-4-2.69-6.09-2.69-1.97,0-3.62.72-4.93,2.16-1.31,1.44-1.97,3.19-1.97,5.25v.07c0,2.09.65,3.85,1.96,5.3,1.3,1.45,2.95,2.18,4.95,2.18,1.27,0,2.37-.23,3.3-.68.93-.45,1.92-1.16,2.96-2.11l3.33,3.37Z"/>
      </g>
    </g>
    <g id="rule">
      <rect class="cls-1" x="497.66" y="48.17" width="1.33" height="82.76"/>
    </g>
    <g id="primary">
      <g>
        <path class="cls-1" d="M61.39,109.54c-.67-.29-1.41-.47-2.03-.89.44,1.48.76,2.77,1.58,4.32.47.89,1.28-1.25.45-3.43M59.35,84.76l.05.05c0,2-5.63,4.87-8.04,6.16,3.72,1.28,7.25-2.17,6.83-1.33-.51.98-5.05,4.9-7.04,7,1.54.43,2.96-.82,4.08-1.77,1.22-1.04,3.27-3.65,2.95-2.36-3.31,4.08-5.91,12.55-4.3,13.09.92-1.92,4.72-11.71,4.96-11.66.25.05-.3,2.59-.38,4.26-.19,3.69-.21,5.44.59,9.07.41-.56.81-.55,1.46-.5.08-.35.06-.26-.35-.8-1.06-1.4.16-3.31-.35-4.47-.42-.97-.66-.19-.86-1.21.3-.27,1.08-.35,1.41-.4.34-3.79,1.61-5.72,1.14-3.33-.24,1.21-.61,3.22-.43,3.28.17.06.19.06.34.14.07.04,6.37-10.32,2.88-3.14-.46.94-2.32,3.48-2.32,3.48.49.5.95,1.09,1.01,1.45.02.1,8.44-11.09,2.7-2.08-.35.55-2.07,2.4-2.51,2.93-.06.07.16,2.1.16,2.1.88-.61,2.13-1.83,2.71-2.61-.08-1.14.19-.99.25-2.11.27-.17.62.31,1.04.68.2.18,5.78-9.54,2.28-2.25-.56,1.17-1.8,2.56-1.86,2.67.24.25.59,1.05.99,1.98.02.04,7.47-10.75,2.94-2.6-.36.64-2.6,3.34-2.57,3.41.55,1.35,1.03,2.66,1.03,2.66-.14-1.05-.35-3.12,1.83-4.83.28,1.87.78,1.95,1.43,2.52.28.25.82,1.32.88.41.19-2.66-.68-2.59-1.32-3.72-.15-.27-.13-.88,0-.84,5.37.16,5.19,5.19,6.08,5.18-.41-1.28-.52-2.54-.04-3.57-1.44-1.02-1.08-2.76-.8-3.52-1.62-1.67-.69-5.22.08-5.97-1.04-1.51.24-2.54-.03-3.47-.44-3.28-3.36-2.31-4.02-5.43-.46.56-1.3,2.45-.91,3.08.46.72,1.43.78,1.49,1.31.02.22.1.85-.06.99-.55.1-.93-.41-1.5-.63-1.14-.45-3.89,1.43-4.05-.23-.1-1.05.36-.29.31-1.26-.05-1-.55-.3-.56-1.58,0-.94,1.13-1.24,1.22-1.62.2-.94,1.9,1.38,2.9-1.08-.58.08-1.76-.33-1.64-.9.3-1.54.32-5.25-3.16-4.45-1.25.29-4.72,2.12-5.2.13-1.25,2.22,1.23,1.83,1.97,1.78-.3.21-.67.54-1.59.34-1.96,1.29-9.11,5.83-11.18,6.98,2.77,1.29,7.04-1.4,7.1-1.4M66.06,103.13c-.97.97-1.31.99-1.25,1.41.22.59.65,1.01,1.1,1.52.57.47.78.89.36-.47-.26-.91-.2-1.56-.21-2.45M81.67,81.94c-.17-.39-.47-.75-.88-.95-1.74-.83-5.07.96-5.03-1.64,0,0-1.19.88-.65,1.81,1.24,2.12,4.7-.51,6.56.78M55.52,55.89c-2.91,0-2.97,4.46,0,4.46s2.92-4.46,0-4.46M55.52,64.79c-3.04,0-3.04,4.46,0,4.46s2.92-4.46,0-4.46M58.57,59.63h2.59v-2.55h-2.59v2.55ZM58.57,68.51h2.59v-2.55h-2.59v2.55ZM65.63,65.73c-1.16.71-.96,1.5-.57,1.98.21-.15.96-.66,1.27-.96-.18-.1-.57-.7-.69-1.02M68.33,61.79c0-.25-.02-.48-.04-.61.03-.23-.4-.75-.52-.76-.14,0-.43.26-.6.52-.08.15-.1.55.08.77.37.42.54.43,1.08.08M68.34,63.04c0-.09,0-.18,0-.29,0-.11,0-.41,0-.73-.36.22-.51.4-.88.18-.61.49.32.8.52.97.14-.07.26-.1.37-.12M73.07,55.9c.2-.15.69-.71,1.01-1.01-.18-.11-.5-.33-.63-.64-.56.44-.66.75-.38,1.65M77.21,56.43c-.34.27-.65.51-.81.65.12.23.91.81,1.36.6.44-.2.64-.63.24-.86-.28-.16-.54-.28-.79-.39M77.54,55.74c.21-.16.39-.32.46-.37-.31-.29-.82-.56-1.05-.59-.23-.02-.7.18-.51.42.17.23.36.52.74.57.13.02.25,0,.37-.02M78.76,67.26c.02-.31.03-.62,0-.78.04-.23-.68-.67-.8-.67-.15,0-.15.08-.32.35-.08.14-.01.59.06.65.39.34.7.45,1.05.44M77.81,67.32c-.62.52.08.99.27,1.16.21-.11.48-.15.69-.23-.03-.08-.07-.16-.07-.26,0-.09.02-.3.03-.52-.41.04-.6.07-.93-.15M76.44,68.13l-.38.42-.36.37c-.28-.29-.48-.34-.53-.57v-1.85s-.59-.3-.59-.3c-.27.22-.47.13-.24-.08l.87-.82.21-.03.56.82v1.74c.24.21.04.2.47.28M76.25,62.48c-.3-.82.24-1.58.5-1.8.21-.17.69-.58,1.01-.78.3.18.54.32.69.39-.06.15-.12.45-.44.46-.49.01-.87-.12-1.13.17-.26.28-.06,1.08.27,1.38.24.23.92.53,1.04.26.16-.36.4-.17.17.14-.16.2-.44.64-.6.92-.52-.04-1.21-.3-1.51-1.14M76.97,68.23c0-.45.23-.81.55-1.14-.02-.02-.04-.03-.06-.05-.09-.08-.24-.87-.13-1.04.15-.22.86-.9,1.33-.94.32-.04.81.67,1.09.98-.08.09.1,2.03.1,2.21.1.16.44.27.54.12.13-.17.26.01.13.14-.13.12-.61.51-.76.69-.22-.17-.58-.36-.82-.64-.48.09-.98.44-1.37.72-.44-.19-.58-.62-.6-1.05M80.89,63.31l-.39.42-.49.42c-.28-.29-.48-.37-.53-.6l-.02-1.9-.45-.28c-.26.23-.48.13-.24-.08l.88-.81.2-.03.38.56-.02,2.02c.23.21.23.18.67.26M80.42,57.08c-1.06-.11-.78-.44-.6-.43.99.06.77.45.6.43M80.43,56.45c-1.05.04-.78-.44-.61-.43.89.05.77.42.61.43M79.58,58.73l.45.47v.48l-.34.31h-.28l-.28-.29v-.56s.45-.41.45-.41ZM79.11,54.87c-.11.13-.52.47-1,.84.07.01.14.03.22.07.77.45,1.03,1.08.28,1.68-.41.33-1.08.7-1.81.72-.48.01-1.33-.39-1.49-.56.39-.37.81-.77,1.11-1.02-.47-.36-.92-.86-.56-1.42.27-.42,1.11-1.1,1.86-1.07.74.03,1.08.54,1.38.76M75.12,57.33c-.21.1-.63.54-.96.54-1-.04-2.27-.77-2.09-2.12.19-1.41,1.3-1.95,1.78-1.96.54.04.67.51.98.79-.46.38-1.23,1.13-1.67,1.59.11.24.63,1.13,1.74.85.51-.12.67.1.23.32M71.79,55.1c-.18.18-.6.45-.77.57-.21-.13-.48-.51-.61-.61-.06.06-.19.12-.31.19,0,.25.01,2.54-.01,2.8-.32.02-.6.04-.83-.01-.03-.33.02-2.16,0-2.46-.03-.36-.35-.39-.77-.51.24-.29.69-.62.89-.77.36.29.59.29.77.49.23-.13.65-.38.83-.53.17.2.49.53.62.68.17-.16.37-.03.18.16M68.29,59.82c.32-.04.59.62.88.93-.08.09-.08,2.02-.08,2.21.07.11.29.24.39.15.16-.15.26,0,.12.13-.12.12-.76.67-.91.85-.22-.17-.3-.41-.33-.75-.39.09-.75.31-.98.66-.43-.2-.77-.57-.78-.99,0-.44.29-.69.6-.98-.05-.04-.1-.08-.17-.14-.09-.08-.21-.78-.12-.97.21-.49.9-1.05,1.38-1.09M67.65,58.8c-.14-.21-.18-.39-.47-.31-.74.21-1.55.44-2.13.09-.63-.38-1.16-.5-1.18-1.93-.01-.87.75-1.56,1.25-1.85.57-.33,1.55-.12,1.99.02.21.07.38.04.39-.23,0-.15.24-.11.24,0,0,.12,0,1.88,0,2.02,0,.14-.29.15-.28.02,0-.2-.07-.58-.13-.89-.1-.46-1.31-1.31-2.18-.17-.02.06-.37.66-.33,1.12.03.35.08.84.32,1.16.69.97,1.66.65,2.17-.15.19-.29.15-.64.17-.85,0-.12.27-.14.27,0s-.01,1.31-.01,1.42c0,.17.13.3.19.39.17.26-.02.46-.26.14M63.96,60.67c.34-.51,1.14-1,1.69-1.19.17.2.38.51.63.85-.26.2-.52.46-.67.64-.12-.13-.77-1.11-1.23-.43-.25.36-.51,1.43.34,2.09.41.31.85.41,1.42.32-.29.38-.36.48-.52.81-.82.15-1.16-.12-1.56-.45-.86-.7-.59-1.89-.09-2.64M64.31,67.2c.21-1.41,1.57-1.99,1.99-2.26.07.41.55,1.12.85,1.41-.46.38-1.53,1.27-1.94,1.58.22.41,1.07.7,1.35.39.21-.21.47-.14.23.14-.31.35-.62.86-.78,1.17-.62-.26-1.9-1.07-1.71-2.43M67.57,66.02c.39-.31.6-.54.86-.79.23.37.33.71.54.87.28-.24.74-.53.95-.76.2.1.56.31.58,1.04.02.72.11,1.85.11,2.1,0,.13.04.09.25.05.2-.05.27.05.12.18-.15.12-.86.62-1.05.83-.25-.47-.3-.8-.19-1.27.08-.38.01-1.41.01-1.64s-.35-.31-.5-.44c-.21.16-.24.18-.42.36,0,.31-.04,2.48,0,2.76-.49.02-.44-.01-.72-.01-.02-.42,0-2.09-.03-2.45-.03-.36-.33-.62-.51-.82M71.35,63.49c-.21.18-.67-.11-.84-.39-.26-.44-.18-1.49-.15-2.34.03,0-.15-.21-.33-.25-.22-.06-.26-.14.08-.28.43-.17,1.09-1.19,1.18-1.42.08-.23.21-.01.09.21-.26.51-.16,1.1-.11,1.27.03.08.83-.03,1-.03.11,0,.1.34,0,.33-.14,0-1.19.13-1.19.13-.07.04.08,1.69.19,1.82.01.02.35.31.47.18.16-.15.31.01.12.16-.1.08-.28.41-.52.6M71.78,65.96c.33-.24.88-1.26.95-1.49.07-.24.2-.16.18.1-.03.36-.2,1.16-.13,1.33.03.08.54.08.72.08.11,0,.12.33.01.33-.14,0-.71.08-.71.08-.08.04-.04,1.23.07,1.35.23.22.41.37.72.04.15-.16.31-.01.13.15-.1.09-.53.62-.63.88-.1.26-.67.06-.85-.21-.29-.43-.17-1.31-.19-2.16.05.02-.55-.27-.27-.48M75.68,64.38c-.27.25-.48.49-.71.74-.2-.13-.5-.39-.74-.6.38-.17.59-.41.72-.67.15.33.46.47.72.52M73.93,60.17c.61.19,1.52.05,1.81.87.31.86-.25,1.96-.96,2.01-.6.05-1.14-.15-1.47-.12-.16.01-.27.06-.29.23-.02.18-.26.26-.31.02-.05-.23-.12-1.2-.12-1.49s.26-.31.31,0c.05.3.14.52.38.78.18.21,1.35.5,1.78.15.35-.28.27-.89-.1-1.13-.36-.24-1.81-.57-2.06-.99-.42-.71.33-1.3.66-1.49.52-.29,1.12-.2,1.33-.19.2,0,.47.07.49-.15.02-.22.18-.2.2.03.07.63.13.25.11.93,0,.31-.11.31-.24.08-.09-.16-.98-.9-1.7-.44-.61.4-.38.76.18.91M76.2,71.22c3.18.21,5.9,1.68,5.9,1.68v-20.53s-4.68-3.28-12.29-.34c-2.24.86-7.68.14-7.68.14v20.98c4.78.32,10.99-2.13,14.07-1.93M83.7,77.97c0,.27-.35.66-.35.66l1.27-.64c-.26-.17-.97-.57-1.27-.66,0,0,.35.27.35.64M85.58,77.95c-1.17.23-2.04,1.5-3.37.96-.17-.11-.53-.21-.49-.47.24.14.61.22.87.26,0,0-.71-.59-.08-1.32-.8.5-1.08.37-1.08.1,0-.12,1.05-.89,2.04-.51.72.27,1.33.82,2.11.93v.05ZM82.31,75.54c-.66.07-1.45.46-1.65,1.16-.4.39-.38-.67-1.19-.2-.35.47.56,1.51.34,1.57-.89.27-.77-1.33-1.28-1.37-.73.26-2.56,1.93-.76,3.26-.06-.9,1.64-1.87,2.2.11,1.7-.13,2.27.9,2.48,1.49,2.51.45,1.79,2.11,1.72,2.11-.24-.36-1.32-2.02-3.08-.87-.41.27-1.12.52-1.47.18.03.56.74,1.06,1.22.93,1.57-.43,1.97,1.03.76,1.43.26.4.75.38,1.21.1.67-.41.75-.78,1-1.02.43,2.04-2.16,2.24-2.99,2.37.13.43.41.53.93.68-2.73.09-3.27,2.66-3.11,4.13.62.05,1.57-1.29,1.48-.53-1.94,2.05-2.59,4.8-1.57,6.55.48-.2.63-.73.81-1.17.07-.05,1.07.39-.52,2.3-.11.49-.67,1.99.56,2.35.47-.55.4-1.03.5-1.6.36-.14.59,1.01.45,1.36-1.6.66-1.4,5.55.45,8.19-.86-1.91-.74-4.36,0-6.32.57-1.51,1.83-4.92,1.86-4.88.71.87,1.61,4.63,1.61,6.18,1-.87,1.19-1.82,2.01-2.46.39,1.36.54,2.26.85,3.47.4-1.17,1.44-2.5-.05-6.31.31-.28.88,1.32,1.05,1.24.14-.05.34-.85-.17-2.34-1.05-.98-1.29-2.43-1.12-2.53.13-.09.61,1.49,1.17,1.58.11-1.23.41-2.49.32-3.44-.02-.25-.43-1.52-1.6-2.57-.67-.61-.93-1.87-.87-2.13.65.6.51,1.04,1.06,1.28.23-.52.07-2.43-.6-3.27-.38-.63-.2-.55.26-.16.6.71.31.66.83.96,1.14-2.68.1-3.2.18-3.39.07-.17.88,1.25,1.56.7-1.12-.59-1.09-1.49-1.21-2.46-.1-.77-.59-1.05-.4-1.24,1.11.84,1.42-.09,1.46-.28-.21.12-1.21.25-1.33-1.29-.05-.61-.98-.88-.98-.88.57-.11,2.41-.21,1.97-2.04-.22.43-.77,1.11-1.91.84,0,0,.73-.2.6-.99-1.77.99-3.2-1.03-5.04-.77M97.92,56.62c.29.24,1.1.62,1.51.77,0-.35,0-.69-.03-.86.03-.23-.8-.67-.93-.67-.15-.01-.36.23-.55.51-.1.15-.09.19,0,.25M98.76,58.83c.27-.13.46-.19.67-.2-.01-.11-.02-.21-.02-.35,0-.1,0-.38.01-.7-.36-.12-.83-.31-1.22-.53.06.04.12.07.18.1-.43.79.15,1.49.38,1.67M98.78,63.15c.18.46.96,1.07,1.18,1.17.33-.39.5-1.11.43-1.72-.05-.47-.66-.98-1.18-1.17-.66.4-.66,1.09-.43,1.72M88.34,67.55c-.39.74-.07.89.15,1.07.27-.14.51-.26.71-.4,0-.13,0-.38.01-.66-.44.05-.58.15-.87-.01M89.21,67.34c0-.33,0-.65-.03-.81.03-.24-.49-.59-.62-.6-.15,0-.26.06-.45.34-.09.15-.07.74.01.8.43.37.71.32,1.09.27M89.85,69.23c-.28-.21-.52-.27-.61-.61-.73.28-1,.7-1.44,1-.26-.24-.47-.66-.48-1.1,0-.43.42-1.02.66-1.24-.03-.03-.05-.03-.08-.06-.1-.08-.23-.71-.1-.88.16-.23.81-1.12,1.32-1.16.35-.03.62.4.92.72-.08.09-.04,1.63-.05,1.82.33.35.46.43.65.3.2-.13.27,0,.14.13-.14.13-.75.89-.92,1.08M91.61,66.15c.05.01-.72-.29-.39-.45.58-.29,1.15-.88,1.24-1.13.09-.23.31-.13.19.11-.11.24-.19.82-.13.99.03.08.46.12.66.12.11,0,.1.35,0,.35-.14,0-.69,0-.69,0-.08.04-.02,1.94.03,2.1.06.16.51.27.68.11.17-.15.34,0,.14.16-.1.09-.45.63-.72.74-.28.11-.7-.07-.89-.35-.3-.45-.12-1.88-.11-2.75M92.9,63.55c-.33-.19-.78-.62-1.03-.98-.44.57-.55,1.05-1.35,1.26.47-.39.89-1.26.86-2.08-.04-.74-.44-1.11-.8-1.25-.31.15-.57.35-.73.42-.17.07-.22-.2-.09-.25.39-.19,1.25-.85,1.37-.98.37.07.82.38.88.68.28-.17.77-.7.91-.83.17.29.66.65,1.21.85-.5.86-1.62.34-1.78.13-.18.3-.22.48-.04.86.23.51,1.15,1,1.62,1.13-.14.15-.8.89-1.04,1.05M93.67,66.6c.33-.37.69-.61.89-.82.35.26.47.42.66.72,0,.47-.11,1.47-.08,1.82.02.34,1.37.57,1.43.07.06-.5.02-1.14,0-1.44-.03-.23-.56-.34-.83-.3.36-.38.67-.66.9-.87.33.24.64.6.84.89,0,.51-.1,1.69-.03,2.01.09.33.06.35.3.51-.25.23-.44.34-.61.52-.26-.07-.69-.46-.66-.8-.31.21-1.23.6-1.55.68-.33-.34-.58-.43-.6-.85-.02-.43.1-1.54-.04-1.8-.13-.27-.36-.32-.64-.34M97.97,63.04c.03-1.08.75-2,1.91-2.41.91.31,1.3,1.23,1.33,1.86.02.51-.31,1.17-.54,1.59-.36.24-.72.59-1.07.92-1.11,0-1.65-1.31-1.63-1.95M98.11,67.22c.28-.16.93-.76,1.16-.91.38.29.62.58.81.79.25-.13.64-.42.83-.57.33.24.7.54.84.71.17-.16.39-.03.19.17-.19.18-.63.56-.79.69-.24-.13-.66-.61-.8-.71-.07.06-.21.13-.33.19,0,.26,0,2.43-.02,2.69-.36.02-.64.05-.89,0-.02-.34.01-2.22,0-2.52-.02-.37-.62-.5-1.02-.51M102.46,63.36c-.28-.02-.55-.06-.7-.11-.24-.07-.14-.33.06-.33.19,0,.49.06.63.11.14.06.19.35.02.33M102.48,62.72c-.27-.01-.55-.06-.71-.1-.24-.06-.14-.33.06-.33s.49.06.64.11c.14.06.2.35.01.33M100.77,58.58l-.83.91c-.24-.17-.39-.36-.46-.67-.64.12-1.07.5-1.37.73-.27-.24-.66-.88-.67-1.31-.01-.44.33-1.08.57-1.3.02,0,.05.02.07.04-.14-.08-.27-.17-.37-.25-.09-.08-.12-.3,0-.47.16-.22.68-.87,1.19-.95.27-.04.73.03,1.35.6-.08.1-.08,1.92-.08,2.11.22.27.59.56.59.56M95.24,61.88c-.13.68.45,1.23.9,1.46.36.19.97.08,1.13.06.15-.02.11-.07.22-.17.11-.11.24-.01.15.09-.1.11-1.01.97-1.26,1.14-.23.06-.73.04-1.04-.34-.54-.67-.92-.91-.76-2.14.12-.83,1.5-1.55,1.82-1.72.13.12.75.79,1.03,1.01-.11.14-.46.29-.79.29-.34,0-.57-.29-.8-.54-.16.15-.51.35-.61.85M97.04,55.22c-.16,0-1.71.19-1.71.19-.08.04.08,1.97.14,2.13.05.16.2.4.37.25.16-.16.34.1.15.26-.11.09-.45.77-.61.87-.25.16-.6-.35-.72-.67-.19-.53-.31-1.84-.31-2.72.05.01-.73-.31-.38-.45.69-.29,1.35-1.21,1.43-1.44.08-.24.3-.14.19.1-.23.48-.2.82-.11,1.1.03.08,1.35.05,1.55.05.11,0,.11.34,0,.34M93.4,57.6l-.64.84h-.6c-.3-.3-.5-.53-.55-.77l-.03-2.01-.75-.43c-.14.19-.42.19-.31.03l1.03-.91.22-.02.66.66v2.08c.31.37.51.46.97.54M92.56,53.51l-.36.31h-.3l-.3-.3v-.58s.47-.41.47-.41l.49.47v.5ZM90.48,53.47c-.36.11-.62.46-.7.83-.07.37-1.29,3.91-1.43,4.14-.29-1.1-1.51-3.73-1.9-4.29-.34-.49-.66-.4-.97-.41-.3,0-.19-.29.06-.26.34.04,2.27.21,2.82.29.2.04.2.22-.06.3-.13.03-.44.19-.44.33,0,.21.7,1.75.89,2.04.16-.4.83-2.08.69-2.45-.14-.37-.2-.43-.47-.46-.27-.03-.27-.19.06-.24.33-.05,1.24-.13,1.52-.1.28.02.31.18-.06.28M86.11,59.83c.61-.33,1.97-.54,2.44-.39.24.06.48,0,.48-.11,0-.16.22-.12.22,0s0,1.61-.02,1.75c0,.14-.22.13-.22,0,0-.21,0-.28-.19-.57-.54-.82-2.05-.89-2.79.1-.26.33-.35.91-.06,1,.28.09,1.35,0,1.7-.06.35-.06,1.21-.21,1.31-.27.1-.06.23-.14.23.03s0,.74,0,.92c0,.18-.14.09-.23.02-.1-.06-.91-.14-1.26-.16-.58-.05-1.47-.23-1.76-.14-.29.09-.06.54.19.88.74.99,2.11,1.03,2.66.21.2-.29.2-.36.2-.56,0-.13.22-.15.22,0,0,.14-.01,1.37-.01,1.49s-.23.16-.23,0c.01-.26-.15-.24-.46-.16-.8.21-1.86.28-2.5-.08-.67-.39-1.25-.51-1.27-1.98-.01-.89.82-1.6,1.36-1.91M85.02,64.35c.2.02.8.03,1.01.03-.03.45-.03,3.54,0,3.86.03.32.3.42.58.29.14-.05.26.04.08.19-.31.23-.68.76-.85.97-.35-.24-.73-.54-.7-.83.04-.5-.11-4.1-.13-4.52M89.52,71.22c2.11,0,10.41,2.28,14.41,2v-20.88s-5.89.83-10.99-1.05c-4.16-1.54-9.88,1.15-9.88,1.15,0,.71,0,20.48,0,20.48,0,0,2.11-1.7,6.46-1.7M104.67,64.91v3.98s2.22-.02,4.68-1.6c.74-.48,1.83-.28,2.37.15h0s-.33-2.6-2.54-2.28c-4.05.59-4.52-.24-4.52-.24M111.73,59.16c.04.26.06.44.08.55-.02-.12-.04-.3-.07-.55,0,0-.13-2.34-2.64-2.34-.82,0-1.81,1-4.35-.11v3.97c1.03.3,3.86-1.31,4.98-1.8.81-.35,1.95-.12,2,.28M108.97,100.9c-.17-6.29-4.02-13.26-2.97-11.97,2.63,3.25,3.47,10.28,5.27,16.34,0,0,1.16.59.91-7.1-.05-1.56-.69-3.63-1.46-5.07-1.53-2.85-4.62-7.67-4.53-7.7.75-.61,2.56,3.55,4.14,5.18,1.02,1.06,3.87,2.09,4.06,1.95-2.28-4.42-7.8-8.58-7.23-9.1,4.07,3.81,5.35,3.99,5.52,3.79l-3.66-3.56c-1.03-1.39-2.4-2.45-2.21-2.41,1.63.36-.85-1.36-2.77-1.88-.35-.09-.9-.12-.92-.3-.03-.3.45-.17.86-.3.26-.08.53-.28.54-.66-.73.16-1.48,0-2.11-.29-1.29-.6-3.61-1.3-4.68-.88-.62.25-.74.21-1.41.73-.3-.12-1.11-.65-2.27.75-.36.43-.79.93-.81,1.3-.05.93.02.05.25.93.09.37-.33,1.05-2.03,1.62-.66.22-.49.87-.49.87.33-.16.84-.53,1.64-.15,1.56.73,1.86-.42,2.83-1.24,0,0-.27,1.03,0,1.09,1.21.25.81,1.16.65,1.29-1.53,1.36-.89,1.87-1.43,2.71-.51.79-1.3,1.09-2.48,1.06-1.63-.05,2.13-2.51-1.46-3.53.56.94.79,1.7-.46,2.43-.79.46-.39,2.8-2.42,1.71,0,0-.17,1.73-.4,1.81,2.76,2.42,1.22,3.74,1.36,7.19.86,2.2-.08,3.25-.3,3.37.14,1.49.28,2.3,1.21,3.51.67.88-.06,2.23.63,3.17.63-2.24,1.31-1.31,1.49-4.42.25-.52,1.3-1.45,1.9-1.51,0,1.88.69,3.59.54,4.38,0,0,1.59-.29,2.08-.11.39.13.69.64.7.96-.54.34-.54.21-1.35.8-1.42,1.04-2.08,3.15-2.08,3.15,0,0,3.34-2.67,3.59-3.15.19-.38.37-.97.55-1.58.02-.07-1.72-1.08-2.2-2.02-1.5-2.91,2.32,1.72,2.41,1.32.22-1.01.92-1.95.92-1.95-.24-.29-.84-.46-1.75-2.07-2.09-3.67,2.42,1.57,2.42,1.57,1.2-.68,1.2.23,1.35,1.2.01.09,2.03,1.57,2.12,1.67.57-.53.98-1.25,1.21-1.74.03-.07-3.64-3.32-4.26-4.39-5.05-8.67,4.09,3.85,4.52,3.5.24-.68.33-1.61.3-2.87,0-.03-1.72-1.22-2.82-3.03-4.25-7.01,2.79,2.09,2.78,2.03-.08-1.5-1.31-8.01-.46-6.06.44,1,1.8,5.17,1.55,9.4.47-.77,2.43-1.55,3.18-1.75M101,107.82s-.67-.51-.71-.41c-.11.3-.26.63-.45,1.02-.18.35.35.1,1.17-.61M100.73,105.2c-.08.57-.08,1.01-.26,1.66-.02.06.64.33.94.59.42-.39.8-.59,1.24-1.14-.1-.06-1.86-1.59-1.86-1.52-.01.21-.02.18-.05.42M106.17,108.82c.78-.66,1.23-1.78,2.24-2.11-.76-.7-1.5.69-1.89.21.7-1.1,1.14-1.94,1.22-3.32.04-.75.9-1.44,1.1-1.85-.83.12-3.05,1.43-3.49,2.18-1.49,1.97-1.41,3.82-7.64,6.57-.31,0,1.15-1.07,1.57-2.3.2-.58,1.02-3.25.45-4.54-1.29,1.31-1.02,1.74-1.39,2.7-.93,2.55-1.44,2.79-3.76,4.36-.31.21-2.09,2.96-4.4,3.1.23-.06.1-.64.88-1.15,2.59-1.7,1.6-5.36,4.98-5.97-1.68-.6-2.84,1.04-3.15.88,1.36-1.89.16-3.48.36-5.03-.45.24-.91.79-.95,1.25-.25,2.75-1.54,3.22-1.67,4.41.27,1.96-1.3,3.48-2.45,4.86-.22-1.14.08-2.15,1.51-3.1.79-.52-.08-2.08-.08-2.08-.32,1.71-1.28,2.23-1.88,2.32-.52.08,1.83-2.39,1.56-4.65-.12-1-.41-.56-.57-1.68-2.03,2.25-.55,3.65-2.63,6.26-.99,1.23-1.36,3.4-1.49,3.46.02-3.23.13-2.29,1.56-4.91,1.18-2.16-.06-4.17-.22-5.47-2.59,1.78-2.37,5.21-2.44,4.47-.06-.73-.39-2.02-.04-3.18.58-1.93-.64-4.88-.64-4.88-3.62,5.67-.58,12.3-.81,12.22-1.57-2.46-2.72-2.56-3.06-4.44-.19-1.03-2.05-6.64-5.47-6.74,1.73,1.49,1.31,1.69,1.42,4.13-1.1,6.1,7.43,6.73,6.86,9.89-1.17-1.87-2.95-2.66-5.64-4.13-1.19-.94-2.53-1.36-2.61-2.84.14-1.07.2-.85.02-2.25-.13-1-1.11-.39-1.83-2.47-1.54,1.39-.98,2.97-.85,3.87.04.25.21,1.2-.03,1.75-.55-.38-.93-1.16-1.54-1.93-1.1-1.41-1.09-3.13-1.65-4.32-.26-.55-.62-1.3-.84-1.31l-.04.02c-.27,2.22-.14,4.15.87,5.81,0,0-.28.48-.5.6-.96-.25-2.31-1.06-2.86-2.61-1.19,1-.35,2.29-.4,2.27-2.67-1.37.03-6.67-3.77-6.51.94,1.02.34,2.33.26,3.56-.02,1.99,2.5,3.53,2.5,3.53-2.82-.95-3.4.37-3.36.37,0,0,4.15,1.8,10.7,2.48.84.09,2.04,1.08,1.84,1.08-.84-.07-2.51-1.15-4.91.98,1.41.04,2.38,2.34,4.68,1.02,5.93-1.68,8.12,1.27,9.09,2.02-.21.37-4.56-2.73-8.01-.68-1.84,1.09-4.78.1-7.09-1.62.93,2.38,4.9,5.06,6.21,5.06,1.61,0,3.67-2.1,6-1.98,3.74.18,4.26,3.52,3.85,3.27,0,0-2.94-4.87-6.72.33,1.77-.81,4.13-.6,6.2.38.28.13-.51,1-1.06,1.64-.36.41-1.94,2.75-3.65.45-.26-.34-1.07-2.48-6.4-2.02,2.01.91,4.24,3.29,5.34,4.38,2.79,2.77,7.02-3.36,7.18-2.67,0,1.37.71,2.04,1.08,2.79.94,1.87-1.19,1.56-2.34,1.08,0,0,2.21,3.44,4.05,1.52,2.04-2.12-2.68-3.72-1.18-5.4.85-.95,3.81,2.12,5.15,2.13,3.63.4,3.44-3.04,5.35-2.94-1.8-1.82-3.71-.83-4.12-.36-1.21,1.41-2.61.46-3.58-.3-.53-.7-1.42-.81-2.21-.59-.38.03.76-1.33,2.24-1.04,3.34.65,6.68-.55,7.5-1.01,1.34-.75,2.09-2.03,3.59-3.46-.47.09-3.24,1.63-4.13,2.08-2.67,1.34-4.34-.4-4.64-.39-.51.01-.38-.39.43-.65,2.74-.61,4.63-3.03,7.25-3.98,2.88-1.29,6.54-.42,8.98-2.83M105.13,113.51c1.09-1.56,1.72-3.25,2.09-5.06-.64.83-1.57,1.56-2.51,1.93-.66,2.09-.35,4.24.42,3.13M115.06,96.27c-2.72,29.29-27.24,34.28-32.47,35.23-.28.05-29.52-3.66-32.47-35.22v-46.57s27.93-3.61,64.94,0v46.56ZM116.76,96.54v-48.5c-38.97-3.76-68.38,0-68.38,0,0,0,0,48.5,0,48.51,3.1,32.88,33.9,36.74,34.19,36.69,5.5-.99,31.32-6.18,34.19-36.7"/>
        <path class="cls-1" d="M478.04,52.49l.03-.05v-.06c-.06-1.05-.09-2.41-.09-3.82v-.28l-.27.06c-.35.08-2.14.08-3.87.08h-5.34c-1.09,0-2.06-.02-3.35-.09h-.06s-.05.02-.05.02c-.24.12-.28.46-.29.56-.02.25.06.46.2.55l.56.09c1.47.18,1.55.34,1.55,3.44v10.44c0,3.07-.07,3.23-1.54,3.4l-.8.1-.05.05c-.17.16-.19.43-.16.63.03.22.13.38.27.45l.05.03h.06c1.36-.06,2.34-.09,3.62-.09,1.17,0,2.18.03,3.85.09h.06s.05-.02.05-.02c.19-.09.27-.35.28-.56.01-.25-.06-.45-.21-.54l-1.09-.12c-1.48-.13-1.57-.32-1.57-3.4v-4.03q0-.56.74-.56h1.97c1.02,0,1.78.02,2.17.14.41.13.63.4.78.94l.31,1.2.05.05c.29.25.9.23,1.09-.05l.04-.06v-.07c0-.3-.02-.69-.05-1.12-.03-.53-.07-1.12-.07-1.7s.03-1.21.07-1.76c.03-.45.05-.86.05-1.17v-.07l-.04-.06c-.14-.21-.43-.23-.55-.23-.24,0-.45.08-.56.21l-.31,1.25c-.16.7-.36.77-.58.85-.31.1-1.2.16-2.39.16h-1.97q-.74,0-.74-.56v-6.12q0-.94.65-.94h1.77c1.2,0,2.15,0,2.76.17,1.24.32,1.62,1.16,1.87,2.58v.08s.07.05.07.05c.11.1.27.15.44.15.22,0,.5-.09.6-.3h0ZM458.57,58.14c0-4.9-3.22-10.17-10.29-10.17-6.02,0-10.55,4.5-10.55,10.47,0,5,3.62,10.06,10.55,10.06,5.87,0,10.29-4.45,10.29-10.35h0ZM455.22,59.04c0,5.98-3.54,8.1-6.57,8.1-5.99,0-7.58-6.06-7.58-9.64,0-6.05,3.62-8.19,6.71-8.19,5.49,0,7.44,5.24,7.44,9.73h0ZM429.71,108.63c0,12.53,9.33,23.61,24.79,23.61,13.44,0,24.16-10.24,24.16-24.3,0-12.25-8.08-23.88-24.16-23.88-14.34,0-24.79,10.65-24.79,24.58h0ZM436.67,106.4c0-15.25,9.4-20.19,16.64-20.19,13.3,0,18.38,12.39,18.38,23.88,0,13.72-7.94,19.98-16.29,19.98-13.72,0-18.73-13.37-18.73-23.68h0ZM423.07,49.46c.15-.13.23-.34.21-.56-.02-.22-.13-.42-.3-.52l-.06-.04h-.07c-2.06.12-3.28.12-5.46,0h-.06s-.05.02-.05.02c-.16.08-.27.24-.31.45-.04.23.03.48.19.63l.06.06.6.07c.56.07.91.21,1.02.28-.09.42-1.11,2.3-1.72,3.44l-.13.25c-.7,1.35-1.5,2.81-2.52,4.56-.76-1.38-1.51-2.9-2.23-4.37-.28-.58-.57-1.15-.85-1.72-.21-.42-.86-1.9-.88-2.13,0-.06.13-.18,1.03-.3l.45-.07.05-.05c.16-.16.22-.44.16-.69-.05-.2-.17-.34-.34-.4h-.04s-.04-.01-.04-.01c-.71.06-1.75.08-3.09.08s-2.41-.03-3.35-.09h-.07s-.06.03-.06.03c-.14.08-.24.23-.27.43-.04.23.02.48.16.64l.05.06.89.16c.77.13,1.16.19,2.13,2.09l3.42,6.68c.82,1.58.9,1.91.9,3.5v1.48c0,3.15-.07,3.31-1.54,3.46l-.98.09-.06.06c-.17.17-.19.44-.16.63.04.21.14.38.27.44l.05.03h.06c1.56-.06,2.58-.09,3.79-.09s2.22.03,3.94.09h.06s.05-.02.05-.02c.14-.07.24-.23.27-.45.03-.2,0-.47-.16-.63l-.06-.06-1.18-.09c-1.34-.1-1.53-.32-1.53-3.46v-1.51c0-2.17.06-2.39,1.33-4.59l1.83-3.16c.17-.29.32-.56.48-.83,1.14-1.99,1.97-3.43,3.2-3.65l.87-.16.05-.04h0ZM411.82,84.96c-1.19-.28-4.88-1.04-8.84-1.04-10.52,0-17.41,3.27-22.07,8.15-4.32,4.59-6.27,10.58-6.27,16.5s2.23,11.63,6.41,15.81c5.36,5.43,12.95,7.73,21.24,7.73,3.76,0,8.77-.84,12.47-1.81,1.32-.35,2.58-.63,3.41-.63.28-.21.28-.63.07-.83-1.25-.49-1.67-2.16-1.67-4.94v-3.9c0-3.55.07-5.5,2.99-5.85l1.12-.14c.49-.42.42-1.46-.07-1.74-2.3.14-4.67.21-7.38.21-4.11,0-7.94-.07-9.96-.21-.49.21-.56,1.46,0,1.74l3.06.35c4.32.49,4.53.91,4.53,6.75v2.79c0,2.23-.35,3.48-.69,3.97-.77,1.18-3.34,2.09-7.66,2.09-14,0-20.89-10.52-20.89-23.88,0-10.44,5.92-20.05,19.43-20.05,7.1,0,12.32,2.37,14.27,9.89.42.42,1.67.35,1.88-.21-.63-4.18-1.05-7.8-1.05-10.1-.84.14-2.99-.35-4.32-.63h0ZM401.03,47.98l.02-.08-.04-.08c-.11-.22-.41-.24-.53-.24-.07,0-.18,0-.27.05l-.07.03-.04.07c-.37.65-.53.7-2.07.7h-11.99c-1.3,0-1.88-.07-2-.72v-.07s-.06-.05-.06-.05c-.08-.08-.21-.12-.4-.12-.07,0-.3,0-.43.09l-.08.05-.02.09c-.2,1.16-.63,3-1.09,4.29l-.03.09.04.09c.18.35.77.52,1.09.28l.05-.04.02-.05c.29-.67.57-1.31,1.25-1.93.64-.59,2.09-.67,3.42-.67h1.6q.65,0,.65.7v12.97c0,3.14-.18,3.28-1.59,3.4l-1.04.09-.1.03c-.17.11-.27.32-.26.58,0,.2.09.44.28.53l.05.02h.06c1.78-.06,2.85-.09,4.03-.09s2.07.03,3.79.09h.06s.05-.02.05-.02c.24-.12.28-.46.29-.56.02-.25-.06-.45-.2-.55l-1.03-.12c-1.45-.12-1.54-.32-1.54-3.4v-13.01c0-.29,0-.57.05-.62.05-.05.36-.05.57-.05h2.06c1.55,0,2.61.22,3.23.68.27.2.51.94.64,1.97v.06s.05.05.05.05c.11.13.3.21.53.21.28,0,.51-.12.6-.31l.03-.06v-.06c-.09-.83.11-3.17.42-4.33h0ZM374.58,63.39v-10.33c0-3.17.09-3.37,1.56-3.49l.79-.06.05-.03c.15-.1.22-.3.2-.55,0-.1-.05-.44-.28-.56l-.05-.03h-.06c-1.37.06-2.4.09-3.59.09s-2.24-.03-3.65-.09h-.06s-.05.02-.05.02c-.24.12-.28.46-.28.56-.02.25.06.45.2.55l.05.03.78.06c1.48.13,1.57.32,1.57,3.49v10.33c0,3.12-.07,3.29-1.57,3.46l-.8.1-.05.05c-.17.16-.19.43-.16.63.03.21.13.38.27.45l.05.03h.06c1.48-.06,2.45-.09,3.65-.09s2.11.03,3.59.09h.06s.05-.02.05-.02c.24-.12.28-.46.28-.56.02-.25-.06-.45-.2-.55l-.82-.12c-1.5-.18-1.57-.34-1.57-3.46h0ZM368.72,129.25c-2.99-.35-3.9-1.39-5.92-7.38l-9.54-27.99c-1.04-3.06-2.16-6.27-3.06-9.33-.14-.49-.63-.63-1.04-.63-.77.91-1.95,2.16-3.62,2.65.21,1.11-.21,2.43-1.18,4.94l-7.1,18.8c-2.92,7.8-4.87,12.32-6.13,15.53-.97,2.51-2.51,3.27-4.18,3.41l-2.3.21c-.42.35-.28,1.46.14,1.74,1.88-.07,4.39-.21,6.68-.21,3.27.07,5.43.07,7.24.21.62-.28.62-1.39.14-1.74l-2.3-.21c-1.67-.14-2.02-.56-2.02-1.39,0-.77.49-2.65,1.53-5.78l2.44-7.31c.49-1.46.91-1.67,2.65-1.67h10.51c2.09,0,2.37.21,2.86,1.74l3.06,9.47c.56,1.67.91,2.92.91,3.69,0,.7-.97,1.12-2.44,1.25l-2.02.21c-.49.35-.42,1.46.14,1.74,2.02-.07,4.66-.21,8.01-.21,3.13,0,5.57.07,8.43.21.35-.28.49-1.39,0-1.74l-1.88-.21h0ZM350.75,110.31h-8.57c-1.95,0-2.02-.07-1.46-1.67l4.39-12.12c.77-2.09,1.46-3.76,1.67-4.11h.14c.42.84,1.04,2.72,1.6,4.39l3.76,11.35c.63,1.88.49,2.16-1.53,2.16h0ZM354.67,52.31c0-1.12.42-3,3.23-3,2.56,0,3.34,1.66,3.73,3.11l.04.08c.09.11.25.18.44.18.22,0,.51-.09.64-.28l.04-.06v-.07c0-1.19-.24-2.84-.53-3.62l-.05-.15h-.15c-.21,0-.59-.05-.96-.16-.69-.19-1.78-.39-2.75-.39-3.67,0-6.14,2.09-6.14,5.21,0,2.65,2.02,4.38,3.23,5.18l2.76,1.8c2,1.29,2.28,2.62,2.28,3.87,0,1.55-1.05,3.11-3.41,3.11-2.94,0-4.22-2.26-4.78-4.16l-.03-.06c-.09-.13-.24-.2-.44-.2s-.47.07-.62.28l-.04.06v.08c.06,1.31.43,3.46.81,4.16l.03.05.05.03c.57.33,2.16,1.1,4.64,1.1,3.83,0,6.4-2.25,6.4-5.59,0-2.32-1.22-4.2-3.73-5.76l-2.32-1.45c-.88-.55-2.36-1.71-2.36-3.38h0ZM347.36,68.15c.13-.11.2-.28.18-.45-.02-.16-.12-.29-.26-.34h-.06c-.69-.06-1.39-.35-1.87-.78-2-1.68-3.59-4.12-5.79-7.67-.15-.24-.17-.36-.17-.4.96-.4,3.69-1.82,3.69-5.02,0-2.43-1.38-3.66-2.53-4.26-1.45-.79-3.32-.9-4.95-.9-2.66,0-4.72.07-6.49.23l-.08.02c-.17.08-.28.27-.3.5-.02.25.07.49.24.61l.05.03.99.12c.95.12,1.08.32,1.08,3.17v10.42c0,3.07-.07,3.23-1.54,3.4l-.81.1-.06.07c-.16.19-.18.47-.14.66.04.2.14.34.27.41l.05.03h.06c1.29-.06,2.34-.09,3.62-.09,1.2,0,2.21.03,3.44.09h.06s.05-.02.05-.02c.21-.11.27-.38.28-.5.03-.26-.04-.48-.18-.6l-.05-.04-.67-.1c-1.49-.21-1.55-.33-1.55-3.41v-3.66q0-.41,1.14-.41c1.11,0,1.49.27,1.88.83.44.64.95,1.45,1.45,2.24.52.82,1.01,1.6,1.39,2.14,1.99,2.84,3.5,3.75,6.19,3.75.56,0,1.05-.06,1.34-.15l.07-.04h0ZM338.62,57.35c-.83.63-1.96.71-2.85.71-1.31,0-1.71-.05-1.83-.09-.03-.12-.03-.46-.03-.79v-6.79c0-.65,0-.71,1.66-.71,3.26,0,4.42,2.29,4.42,4.25,0,1.61-.43,2.7-1.36,3.42h0ZM323.63,63.9v-.07s-.02-.06-.02-.06c-.12-.28-.43-.4-.68-.4-.14,0-.27.04-.38.11l-.07.08c-.83,1.66-1.58,2.5-1.96,2.71-.62.31-1.5.41-3.61.41-2.42,0-3.04-.29-3.35-.6-.41-.44-.49-1.38-.49-2.86v-4.09q0-.56.74-.56h1.68c1.01,0,1.77.02,2.18.14.4.1.61.36.74.94l.26,1.13.05.09c.11.13.31.21.54.21.27,0,.48-.1.58-.27l.03-.05v-.06c0-.28-.02-.66-.05-1.08-.03-.53-.07-1.13-.07-1.71s.04-1.23.07-1.78c.03-.44.05-.84.05-1.15v-.06l-.03-.05c-.1-.17-.31-.27-.58-.27-.23,0-.43.08-.54.21l-.28,1.29c-.13.66-.29.76-.55.85-.31.1-1.18.16-2.39.16h-1.68q-.74,0-.74-.59v-5.8q0-.94.65-.94h2.09c1.23,0,2.17.03,2.76.17,1.32.33,1.59,1.17,1.99,2.43l.05.17.04.07c.1.12.27.19.47.19s.48-.07.61-.26l.05-.07-.04-.43c-.15-1.69-.29-3.12-.45-3.57l-.07-.19-.2.05c-.32.08-2.12.08-3.86.08h-5.45c-1.12,0-2.07-.02-3.41-.09h-.06s-.05.02-.05.02c-.24.12-.28.46-.29.56-.02.25.06.46.2.55l.56.09c1.49.18,1.57.37,1.57,3.44v10.44c0,3.14-.18,3.28-1.6,3.4l-1.04.09-.06.06c-.16.16-.19.43-.16.63.03.22.13.38.27.45l.05.03h.06c1.68-.06,2.69-.09,3.94-.09h2.61c2.53,0,5.07.03,7.77.09h.14s.06-.13.06-.13c.39-.81,1.12-3.07,1.32-4.08h0ZM303.72,49.45c.16-.16.18-.43.16-.62-.03-.21-.12-.37-.26-.45l-.06-.03h-.07c-.97.06-1.86.09-2.8.09-1.14,0-2.24-.03-3-.09h-.07s-.06.03-.06.03c-.16.09-.27.28-.29.51-.02.23.05.45.2.57l.05.05.59.06c1.01.12,1.11.33,1.11.33,0,.19-.03.48-.24,1.05-.5,1.26-1.88,4.59-2.7,6.49-.22.49-.49,1.14-.79,1.85-.55,1.3-1.22,2.89-1.79,4.14-1.37-3.15-2.64-6.32-3.92-9.55-.85-2.08-1.34-3.6-1.43-3.98.04-.09.3-.22,1.16-.33l.5-.07.05-.04c.15-.13.22-.34.2-.57-.02-.23-.13-.42-.29-.52l-.06-.03h-.07c-1.29.06-2.3.09-3.5.09s-2.14-.03-3-.09h-.07s-.06.03-.06.03c-.17.1-.28.3-.3.52-.02.22.06.43.21.56l.05.05.59.06c1.13.13,1.51.65,2.17,2.24l5.11,12.59c.61,1.51,1.05,2.8,1.32,3.83l.03.11.1.04c.17.07.34.1.52.1.17,0,.32-.04.44-.12l.06-.04.02-.07c.5-1.56,1.89-4.98,3.01-7.55l1.57-3.57c1.35-3.05,2.46-5.35,3.24-6.65.37-.6.76-.86,1.33-.91l.96-.06.06-.06h0ZM284.78,89.84c-5.29,4.11-8.77,10.72-8.77,18.45,0,8.98,4.32,15.32,9.89,19.15,5.08,3.41,11.07,4.66,17.34,4.66,4.46,0,9.47-1.04,11-1.6.77-.28,1.6-.56,2.44-.7,1.04-1.32,2.85-5.92,3.34-9.54-.28-.49-1.32-.63-1.81-.28-1.6,4.11-5.57,9.96-14.55,9.96-11.42,0-20.68-8.08-20.68-22.7s9.05-21.17,19.71-21.17c10.1,0,13.23,5.43,14.28,10.17.49.42,1.53.35,1.88-.14-.56-4.25-.91-8.63-.97-10.24-.63.07-1.11-.07-1.95-.28-3.27-.91-8.57-1.67-12.32-1.67-7.24,0-13.72,1.95-18.8,5.92h0ZM275.87,63.39v-10.33c0-3.14.1-3.37,1.57-3.49l.78-.06.05-.03c.15-.1.22-.3.2-.55,0-.1-.05-.44-.29-.56l-.05-.02h-.06c-1.37.06-2.4.09-3.59.09s-2.24-.03-3.65-.09h-.06s-.05.02-.05.02c-.24.12-.28.46-.29.56-.02.25.06.45.2.55l.05.03.78.06c1.46.12,1.57.35,1.57,3.49v10.33c0,3.12-.07,3.29-1.57,3.46l-.8.1-.05.05c-.17.17-.19.44-.16.64.03.21.14.38.27.45l.05.03h.06c1.47-.06,2.44-.09,3.65-.09s2.15.03,3.59.09h.06s.05-.02.05-.02c.24-.12.28-.46.29-.56.01-.25-.06-.45-.2-.55l-.82-.12c-1.5-.18-1.57-.34-1.57-3.46h0ZM261.31,120.41v-24.79c0-7.38.14-8.57,4.25-8.91l1.74-.14c.42-.28.28-1.53-.14-1.74-3.48.14-5.85.21-8.63.21-2.92,0-5.29-.07-8.77-.21-.42.21-.56,1.46-.14,1.74l1.74.14c4.11.35,4.25,1.53,4.25,8.91v24.79c0,7.38-.14,8.36-4.25,8.84l-1.74.21c-.42.42-.28,1.53.14,1.74,3.48-.14,5.85-.21,8.77-.21s5.15.07,8.63.21c.42-.21.56-1.46.14-1.74l-1.74-.21c-4.11-.49-4.25-1.46-4.25-8.84h0ZM264.9,49.45c.14-.14.21-.37.18-.59-.02-.21-.13-.38-.28-.48l-.06-.04h-.07c-.95.06-1.71.09-2.98.09-1.02,0-1.98-.02-3.41-.09h-.04s-.04.01-.04.01c-.17.06-.29.22-.33.44-.05.26.03.52.2.67l.05.04.56.07c1,.12,1.5.27,1.64.48.35.55.55,2.69.55,5.89v6.21c0,.28,0,.61-.02.83-1.01-1.04-2.06-2.22-3.37-3.68l-4.04-4.53c-2.87-3.22-4.51-5.33-4.89-6.28l-.06-.17-.18.03c-.35.05-.82.08-1.3.08-.51,0-2.05,0-3.26-.09h-.06s-.06.02-.06.02c-.15.08-.26.24-.29.44-.04.24.03.49.18.64l.06.06.57.07c.77.1,1.35.31,1.66.63.54.59.58,1.13.58,1.94v8.65c0,1.4,0,4.69-.36,5.62-.07.15-.31.35-1.1.45l-.86.09-.06.06c-.13.13-.2.34-.18.55.02.22.11.4.26.51l.06.05h.08c1.01-.06,1.79-.09,3.01-.09.98,0,1.96.02,3.39.09h.08s.06-.04.06-.04c.14-.1.23-.25.26-.44.03-.21-.02-.43-.15-.6l-.06-.08-1-.1c-.7-.06-1.18-.22-1.3-.44-.31-.55-.49-2.7-.49-5.9v-6.33c0-.52,0-1.07.06-1.47.46.52,1.23,1.42,1.92,2.24.47.56.91,1.08,1.2,1.41l6.73,7.66c2.24,2.55,3.31,3.81,3.7,4.36l.07.09h.12c.38,0,.67-.18.76-.47l.02-.05v-.05c-.04-.34-.09-1.49-.09-5.05v-7.33c0-1.49-.02-4.58.41-5.48.04-.07.38-.32,1.46-.49l.48-.07.05-.05h0ZM238.89,49.4c.13-.16.19-.4.15-.61-.03-.18-.12-.33-.27-.42l-.06-.04h-.07c-1.01.06-1.79.09-3.03.09-1.11,0-2.19-.03-3.3-.09h-.07s-.06.04-.06.04c-.13.09-.23.25-.25.45-.03.22.02.43.15.57l.06.07.82.06c.67.05,1.12.23,1.27.5.34.6.52,2.69.52,5.89v3.34c0,3.42-.97,7.49-5.58,7.49-3.87,0-5.67-2.39-5.67-7.52v-6.27c0-3.08.1-3.31,1.54-3.44l.75-.06.05-.03c.14-.1.22-.29.2-.54-.01-.2-.09-.45-.28-.55l-.05-.02h-.06c-1.38.06-2.35.09-3.56.09s-2.22-.03-3.59-.09h-.06s-.05.02-.05.02c-.19.09-.27.34-.29.54-.02.25.06.44.2.54l.05.03.78.06c1.44.13,1.54.35,1.54,3.44v6.85c0,3.51.72,5.67,2.34,7.02,1.28,1.09,3.15,1.65,5.57,1.65,2.29,0,4.47-.84,5.7-2.19,1.41-1.51,2.09-3.82,2.09-7.08v-3.28c0-1.47,0-4.92.39-5.83.13-.29.63-.52,1.26-.57l.79-.06.06-.07h0ZM205.54,86.56c.42-.28.28-1.53-.14-1.74-2.99.14-5.36.21-8.08.21-2.99,0-5.36-.14-8.77-.21-.42.21-.56,1.46-.14,1.74l1.81.14c3.62.28,4.11,1.46,4.11,8.77v25.07c0,7.31-.14,8.01-4.04,8.7l-1.18.21c-.42.42-.28,1.53.14,1.74,2.72-.07,5.08-.21,8.08-.21,2.72,0,5.08.07,8.84.21.42-.21.56-1.46.14-1.74l-2.02-.21c-3.9-.42-4.25-1.39-4.25-8.7v-9.82c0-2.09.14-2.23,3.48-2.23h19.91c3.34,0,3.48.14,3.48,2.23v9.82c0,7.31,0,8.01-4.25,8.7l-1.32.21c-.42.42-.28,1.53.14,1.74,3.06-.14,5.57-.21,8.43-.21s5.08.07,8.43.21c.42-.21.56-1.46.14-1.74l-1.67-.21c-4.04-.49-4.18-1.39-4.18-8.7v-25.07c0-7.31.14-8.36,4.18-8.77l1.46-.14c.42-.28.28-1.53-.14-1.74-3.13.14-5.5.21-8.22.21-2.85,0-5.22-.07-8.43-.21-.42.21-.56,1.46-.14,1.74l1.32.14c4.11.42,4.25,1.46,4.25,8.77v8.01c0,2.16-.14,2.23-3.48,2.23h-19.91c-3.34,0-3.48-.07-3.48-2.23v-8.01c0-7.31.14-8.36,4.18-8.77l1.32-.14h0ZM202.73,63.9v-.07s-.02-.06-.02-.06c-.13-.28-.43-.4-.68-.4-.14,0-.27.04-.37.11l-.07.08c-.83,1.66-1.58,2.5-1.96,2.71-.62.31-1.5.41-3.61.41-2.42,0-3.04-.29-3.35-.6-.41-.44-.49-1.38-.49-2.86v-4.09q0-.56.74-.56h1.68c1.01,0,1.77.02,2.18.14.4.1.61.36.74.94l.26,1.13.05.09c.11.13.31.21.54.21.26,0,.48-.1.58-.27l.03-.05v-.06c0-.28-.02-.66-.05-1.08-.03-.53-.07-1.13-.07-1.71s.04-1.23.07-1.78c.03-.44.05-.84.05-1.15v-.06l-.03-.05c-.1-.17-.31-.27-.58-.27-.23,0-.43.08-.54.21l-.28,1.29c-.13.66-.29.76-.55.85-.31.1-1.18.16-2.39.16h-1.68q-.74,0-.74-.59v-5.8q0-.94.65-.94h2.09c1.23,0,2.17.03,2.76.17,1.32.33,1.59,1.17,1.99,2.43l.06.17.04.07c.1.12.27.19.47.19s.48-.07.61-.26l.04-.07-.04-.43c-.15-1.69-.29-3.12-.44-3.56l-.07-.19-.2.05c-.32.08-2.12.08-3.86.08h-5.45c-1.12,0-2.07-.02-3.41-.09h-.06s-.05.02-.05.02c-.24.12-.28.46-.29.56-.02.25.06.46.2.55l.56.09c1.49.18,1.57.37,1.57,3.44v10.44c0,3.14-.18,3.28-1.6,3.4l-1.04.09-.06.06c-.17.17-.19.44-.16.63.03.21.13.38.27.45l.05.03h.06c1.68-.06,2.69-.09,3.94-.09h2.61c2.53,0,5.07.03,7.77.09h.14s.06-.13.06-.13c.39-.81,1.12-3.06,1.32-4.08h0ZM178.48,63.45v-10.44c0-3.09.09-3.28,1.54-3.44l.61-.06.1-.04c.14-.1.22-.3.2-.55,0-.1-.05-.44-.28-.56l-.05-.03h-.06c-1.4.06-2.36.09-3.42.09-1.26,0-2.27-.03-3.5-.09h-.06s-.05.02-.05.02c-.24.12-.28.46-.29.56-.02.25.06.45.2.55l.65.09c1.48.15,1.57.34,1.57,3.44v3.33q0,.71-1.23.71h-8.3q-1.23,0-1.23-.71v-3.33c0-3.09.09-3.28,1.54-3.44l.55-.06.1-.04c.15-.1.22-.3.2-.55,0-.1-.05-.44-.29-.56l-.05-.03h-.06c-1.32.06-2.29.09-3.36.09-.76,0-1.42-.02-2.14-.04-.46-.01-.95-.03-1.51-.04h-.05s-.05.02-.05.02c-.24.12-.28.46-.29.56-.02.25.06.46.2.55l.05.03.81.06c1.28.1,1.51.36,1.51,3.44v10.44c0,3.02-.06,3.15-1.5,3.41l-.56.1-.05.05c-.17.17-.19.44-.16.63.03.21.13.38.27.45l.05.02h.06c.4-.01.78-.02,1.16-.04.69-.02,1.4-.05,2.2-.05,1.09,0,2.02.03,3.68.09h.06s.05-.02.05-.02c.19-.09.27-.35.28-.56.01-.25-.06-.45-.2-.54l-.94-.12c-1.39-.15-1.57-.29-1.57-3.4v-4.09q0-.7,1.23-.7h8.3q1.23,0,1.23.7v4.09c0,3.09-.03,3.15-1.58,3.41l-.62.1-.05.05c-.17.17-.19.44-.16.64.04.21.14.38.27.45l.05.03h.06c1.39-.06,2.4-.09,3.5-.09s2.15.03,3.5.09h.06s.05-.02.05-.02c.24-.12.28-.46.29-.56.02-.25-.06-.45-.2-.55l-.79-.12c-1.47-.18-1.54-.34-1.54-3.41h0ZM154.62,47.98l.02-.08-.04-.08c-.11-.22-.44-.24-.53-.24-.07,0-.18,0-.27.05l-.07.03-.04.07c-.37.65-.53.7-2.07.7h-11.99c-1.3,0-1.88-.07-2-.72v-.07s-.06-.05-.06-.05c-.08-.08-.21-.12-.4-.12-.07,0-.3,0-.43.09l-.08.05-.02.09c-.2,1.16-.63,2.99-1.09,4.29l-.03.09.04.08c.17.35.77.52,1.09.28l.05-.03.02-.05c.29-.67.57-1.3,1.25-1.93.64-.59,2.09-.67,3.42-.67h1.59q.65,0,.65.7v12.97c0,3.14-.18,3.28-1.59,3.4l-1.04.09-.1.03c-.17.11-.27.32-.26.58,0,.2.09.44.28.53l.05.03h.06c1.78-.06,2.85-.09,4.03-.09s2.07.03,3.79.09h.06s.05-.02.05-.02c.19-.09.27-.35.28-.56.02-.25-.06-.45-.2-.54l-1.03-.12c-1.45-.12-1.54-.32-1.54-3.4v-13c0-.3,0-.58.05-.62.05-.05.36-.05.57-.05h2.06c1.55,0,2.61.22,3.23.68.27.2.51.94.64,1.97v.06s.05.05.05.05c.11.13.3.21.53.21.28,0,.5-.12.6-.31l.03-.06v-.06c-.09-.84.11-3.17.42-4.33h0ZM134.86,108.29c0,8.98,4.32,15.32,9.89,19.15,5.08,3.41,11.07,4.66,17.34,4.66,4.46,0,9.47-1.04,11-1.6.77-.28,1.6-.56,2.44-.7,1.04-1.32,2.86-5.92,3.34-9.54-.28-.49-1.32-.63-1.81-.28-1.6,4.11-5.57,9.96-14.55,9.96-11.42,0-20.68-8.08-20.68-22.7s9.05-21.17,19.71-21.17c10.1,0,13.23,5.43,14.28,10.17.49.42,1.53.35,1.88-.14-.56-4.25-.91-8.63-.97-10.24-.63.07-1.11-.07-1.95-.28-3.27-.91-8.57-1.67-12.33-1.67-7.24,0-13.72,1.95-18.8,5.92-5.29,4.11-8.77,10.72-8.77,18.45h0Z"/>
      </g>
    </g>
  </g>
</svg>